<?xml version="1.0" encoding="UTF-8"?>
<svg version="1.1" xmlns="http://www.w3.org/2000/svg" width="1024" height="1024">
<path d="M0 0 C337.92 0 675.84 0 1024 0 C1024 337.92 1024 675.84 1024 1024 C686.08 1024 348.16 1024 0 1024 C0 686.08 0 348.16 0 0 Z " fill="#FEF4E7" transform="translate(0,0)"/>
<path d="M0 0 C1.11513474 -0.00953201 2.23026947 -0.01906403 3.37919617 -0.02888489 C5.18853386 -0.02751778 5.18853386 -0.02751778 7.03442383 -0.02612305 C8.27638016 -0.03040817 9.51833649 -0.0346933 10.79792786 -0.03910828 C13.43004435 -0.04485794 16.06176963 -0.04628074 18.69384766 -0.04101562 C21.3834711 -0.03638982 24.07264205 -0.04327217 26.76220703 -0.06152344 C30.6447521 -0.086095 34.52681047 -0.0901755 38.40942383 -0.08862305 C39.6055278 -0.09783279 40.80163177 -0.10704254 42.03398132 -0.11653137 C51.70744686 -0.06325148 58.49812136 1.51227015 65.67895508 8.28637695 C70.75747417 13.67172324 73.76298674 19.39452291 76.30004883 26.3215332 C76.68526451 27.36176888 76.68526451 27.36176888 77.07826233 28.42301941 C80.04647322 36.50801941 82.80414489 44.66536957 85.55862427 52.82507324 C87.19354625 57.6660298 88.83839296 62.50360979 90.48364258 67.34106445 C90.821241 68.33383392 91.15883942 69.32660339 91.50666809 70.34945679 C96.79905417 85.8913161 102.23694752 101.38274689 107.66479492 116.87768555 C109.30247985 121.55405162 110.93569249 126.23196768 112.56755066 130.91036987 C113.87429607 134.65655177 115.18215559 138.40234414 116.49020386 142.14807129 C117.11195587 143.92910249 117.73331935 145.71026938 118.35427856 147.49157715 C119.20863142 149.94185149 120.0646669 152.39153147 120.92114258 154.84106445 C121.1745491 155.56904739 121.42795563 156.29703033 121.68904114 157.04707336 C122.96824435 160.72396558 122.96824435 160.72396558 124.55395508 164.2746582 C126.97662594 164.32633348 126.97662594 164.32633348 129.55395508 163.2746582 C131.91576156 158.46674974 133.55529677 153.45721273 135.16333008 148.3527832 C135.66733737 146.7773533 136.17158033 145.20199877 136.67602539 143.62670898 C136.94016235 142.7981842 137.20429932 141.96965942 137.47644043 141.11602783 C142.93557867 124.0206869 148.69706777 107.0472907 154.6640625 90.12329102 C158.21132378 80.05032168 161.68579802 69.95721666 165.07348633 59.8293457 C165.8381235 57.55053333 166.60277188 55.27172472 167.36743164 52.99291992 C168.48246516 49.66826825 169.59398865 46.34266453 170.69396973 43.01300049 C181.29782986 10.9186094 181.29782986 10.9186094 194.05395508 2.8996582 C201.35134105 -0.48841385 209.25826614 0.100557 217.16333008 0.0715332 C218.9689743 0.06298309 218.9689743 0.06298309 220.81109619 0.05426025 C223.34597909 0.04484332 225.88087404 0.03828947 228.41577148 0.03442383 C232.30449319 0.02465685 236.19269961 -0.00642274 240.08129883 -0.0378418 C242.54613945 -0.04436646 245.01098383 -0.04961903 247.47583008 -0.0534668 C248.6414447 -0.0658136 249.80705933 -0.0781604 251.00799561 -0.09088135 C252.08631653 -0.08788025 253.16463745 -0.08487915 254.27563477 -0.08178711 C255.6995755 -0.08725555 255.6995755 -0.08725555 257.15228271 -0.09283447 C259.95160968 0.33550545 260.82420407 1.0901607 262.55395508 3.2746582 C260.72358024 10.39171062 258.58608437 17.26633027 255.95629883 24.1262207 C255.61050278 25.04136444 255.26470673 25.95650818 254.90843201 26.89938354 C254.16345011 28.86991688 253.41630282 30.8396327 252.66717529 32.80859375 C250.61970791 38.19155269 248.58955062 43.58104116 246.55786133 48.9699707 C245.92847656 50.63778595 245.92847656 50.63778595 245.28637695 52.33929443 C241.09588021 63.45844245 237.00789311 74.61422092 232.92895508 85.7746582 C227.92428336 99.45775668 222.87629829 113.12375696 217.75317383 126.76293945 C217.50337957 127.42796856 217.25358532 128.09299767 216.99622154 128.77817917 C214.6922847 134.91071159 212.38603702 141.04237426 210.07858276 147.17358398 C204.67157003 161.54274635 199.29241646 175.92011042 194.04614258 190.34887695 C193.6132341 191.53906937 193.18032562 192.72926178 192.73429871 193.95552063 C190.71557546 199.51164032 188.70466137 205.07044069 186.70458984 210.63330078 C175.04745783 242.93201938 175.04745783 242.93201938 165.55395508 254.2746582 C165.03575195 254.92821289 164.51754883 255.58176758 163.98364258 256.25512695 C156.60211603 264.6567137 144.52169513 269.5149281 133.55395508 270.2746582 C118.06646798 271.26090738 104.79850193 269.76067971 92.55395508 259.2746582 C77.89956149 246.34609196 72.46775937 222.41981016 65.84879684 204.58163452 C64.39906915 200.68063775 62.93904982 196.78349648 61.47998047 192.88598633 C59.18580999 186.75438908 56.89670251 180.62093132 54.61254883 174.4855957 C51.20984123 165.3460239 47.786737 156.21416759 44.35827637 147.08422852 C43.48988489 144.77047457 42.6227801 142.45624251 41.75610352 140.1418457 C36.92353343 127.23854433 32.05267213 114.34981571 27.17767334 101.4624939 C23.04526384 90.53723027 18.92425526 79.60783849 14.82739258 68.66918945 C14.43543198 67.62276779 14.04347137 66.57634613 13.63963318 65.49821472 C11.70228447 60.324944 9.76655011 55.15107456 7.83251953 49.9765625 C4.66732594 41.51592925 1.4953976 33.05999584 -1.80151367 24.6496582 C-2.27983643 23.42657959 -2.75815918 22.20350098 -3.25097656 20.94335938 C-4.09512175 18.79716669 -4.94648353 16.65378949 -5.80712891 14.51416016 C-6.16492432 13.60625732 -6.52271973 12.69835449 -6.89135742 11.76293945 C-7.1957373 11.00537354 -7.50011719 10.24780762 -7.8137207 9.46728516 C-8.55217323 6.90665112 -8.76775249 4.92419316 -8.44604492 2.2746582 C-5.08007651 0.03067926 -3.93916757 0.01848559 0 0 Z " fill="#F06F21" transform="translate(385.446044921875,382.725341796875)"/>
<path d="M0 0 C3.21203185 0.03138474 6.4235715 0.04100624 9.63574219 0.046875 C11.69564398 0.05603874 13.75554081 0.0664125 15.81542969 0.078125 C16.76658661 0.08237488 17.71774353 0.08662476 18.69772339 0.09100342 C19.59621002 0.10061096 20.49469666 0.11021851 21.42041016 0.12011719 C22.20060516 0.12694519 22.98080017 0.13377319 23.78463745 0.14080811 C26.98192802 0.31769013 30.15324611 0.82839342 33.32324219 1.28125 C32.99324219 14.48125 32.66324219 27.68125 32.32324219 41.28125 C16.94824219 42.03125 16.94824219 42.03125 12.16162109 42.23730469 C0.03661593 42.91491909 -9.87843876 45.43246258 -18.67675781 54.28125 C-28.14794097 66.89597361 -27.78917958 81.05909138 -27.90655327 96.22276688 C-27.92335487 98.32065724 -27.94659753 100.41839514 -27.97145081 102.51620483 C-28.04115674 108.47214765 -28.10183147 114.42815142 -28.15356445 120.38427734 C-28.66723461 177.98136375 -28.66723461 177.98136375 -46.68847656 197.62109375 C-51.13993558 201.85988805 -56.52412244 205.04106647 -61.73242188 208.25927734 C-62.4990918 208.73961426 -63.26576172 209.21995117 -64.05566406 209.71484375 C-65.10089233 210.34990845 -65.10089233 210.34990845 -66.16723633 210.99780273 C-66.66537842 211.42134033 -67.16352051 211.84487793 -67.67675781 212.28125 C-67.67675781 213.27125 -67.67675781 214.26125 -67.67675781 215.28125 C-65.35639995 216.90310902 -65.35639995 216.90310902 -62.36425781 218.40625 C-47.46141829 226.79677685 -36.91663918 237.7930842 -31.67675781 254.28125 C-29.09616042 265.60147731 -28.23614106 276.58577951 -28.23535156 288.1640625 C-28.22352287 289.71810104 -28.21014577 291.27212845 -28.19532776 292.82614136 C-28.15961889 296.86764709 -28.1390885 300.90905425 -28.1237793 304.95068359 C-28.09868834 311.42157577 -28.05846929 317.89225036 -28.00187874 324.36294174 C-27.9858922 326.58878849 -27.98180572 328.81441747 -27.97886658 331.04031372 C-27.90162318 346.22166243 -27.65757672 361.68160833 -16.80957031 373.421875 C-9.380272 379.89869917 -1.66612679 382.28841946 7.93261719 382.81640625 C8.89965576 382.87387024 8.89965576 382.87387024 9.88623047 382.93249512 C12.28166022 383.07372578 14.67747579 383.20835005 17.07324219 383.34375 C22.43574219 383.653125 27.79824219 383.9625 33.32324219 384.28125 C33.32324219 397.81125 33.32324219 411.34125 33.32324219 425.28125 C22.48289933 425.88349127 11.78918144 426.46787588 0.95263672 426.46655273 C-1.07377125 426.46877413 -3.09966119 426.48716464 -5.12597656 426.50585938 C-25.88576525 426.59717395 -43.94397625 421.16432045 -59.29003906 406.7578125 C-66.55736284 399.21692334 -71.1712767 391.10474939 -74.67675781 381.28125 C-75.0046933 380.41131912 -75.33262878 379.54138824 -75.67050171 378.64509583 C-76.86914574 374.63811021 -77.37270318 370.786737 -77.78466797 366.63549805 C-77.86895365 365.8045119 -77.95323933 364.97352575 -78.04007912 364.11735821 C-78.81964945 355.8125473 -78.95796101 347.54114972 -78.9511528 339.20496559 C-78.950162 336.52311284 -78.96341812 333.84163398 -78.98013306 331.15983582 C-79.02567495 323.55100198 -79.05100196 315.94221819 -79.05761719 308.33325195 C-79.06267872 303.63623365 -79.0871393 298.93962209 -79.12294388 294.24274254 C-79.13261395 292.47806954 -79.13514542 290.71333977 -79.12977219 288.94864845 C-79.08076597 272.08445733 -80.74205995 256.33149657 -92.52050781 243.23046875 C-101.06819873 235.05060879 -111.24912807 232.91839532 -122.67675781 230.28125 C-122.67675781 218.40125 -122.67675781 206.52125 -122.67675781 194.28125 C-118.53113281 193.476875 -118.53113281 193.476875 -114.30175781 192.65625 C-102.66218706 190.19497774 -93.76951695 185.6345625 -87.05175781 175.46875 C-80.19521034 163.99101849 -79.38206908 152.00464542 -79.3412323 138.94011497 C-79.33283664 136.3335759 -79.31222876 133.72736978 -79.28869629 131.1209259 C-79.24072418 125.57025129 -79.20772407 120.01954201 -79.17675781 114.46875 C-79.14075298 108.06409234 -79.09819073 101.6595954 -79.04081726 95.25509071 C-79.02119559 92.72538968 -79.01251797 90.19582142 -79.0045166 87.6660614 C-78.9505173 79.26074103 -78.59403109 70.94104305 -77.79199219 62.5715332 C-77.71640831 61.75936183 -77.64082443 60.94719046 -77.56295013 60.11040783 C-75.67111657 42.0965914 -67.07691018 26.74735627 -53.81738281 14.57421875 C-37.54794605 1.39875607 -20.04704159 -0.19769039 0 0 Z " fill="#DF492B" transform="translate(362.6767578125,298.71875)"/>
<path d="M0 0 C0.83527222 -0.00960754 1.67054443 -0.01921509 2.53112793 -0.02911377 C3.41868774 -0.03336365 4.30624756 -0.03761353 5.22070312 -0.04199219 C6.62310242 -0.0505423 6.62310242 -0.0505423 8.05383301 -0.05926514 C10.03066894 -0.06868726 12.00752039 -0.075238 13.984375 -0.07910156 C16.96448333 -0.08874593 19.94388314 -0.11977069 22.92382812 -0.15136719 C36.54446402 -0.22910859 49.46751905 0.25276638 61.75195312 6.84863281 C62.42033203 7.19748535 63.08871094 7.54633789 63.77734375 7.90576172 C80.86781349 17.09911343 90.7121005 31.4548594 96.87695312 49.66113281 C100.1367261 61.48607927 99.64992556 74.03009148 99.70118332 86.21430969 C99.71320788 88.82372968 99.73270974 91.43300085 99.75430298 94.0423584 C99.81516958 101.45055092 99.86988889 108.85871792 99.90332031 116.26708984 C99.92443826 120.82862901 99.95985656 125.38987708 100.00407791 129.95124817 C100.01808091 131.67011566 100.02692414 133.3890344 100.03013229 135.10795593 C100.06339122 151.20845148 101.08154823 168.88755917 112.57226562 181.41894531 C122.01503266 189.23715028 132.55813925 191.60174413 144.50195312 194.16113281 C144.50195312 206.04113281 144.50195312 217.92113281 144.50195312 230.16113281 C139.88195312 231.15113281 135.26195312 232.14113281 130.50195312 233.16113281 C117.30598621 238.02799269 110.61082595 244.76571557 104.72070312 257.28222656 C99.66129251 269.23346253 100.34812647 282.57375525 100.27215767 295.32864189 C100.25551532 298.02547879 100.2322741 300.72218901 100.20726013 303.41896057 C100.13710463 311.07880159 100.0764843 318.73869152 100.02514648 326.39868164 C99.99313973 331.10582185 99.95182353 335.81280857 99.9049511 340.51982307 C99.88907551 342.29896323 99.87668856 344.07813844 99.8680439 345.85732841 C99.75287389 369.21227934 95.97482029 389.93498448 79.39257812 407.48535156 C63.24254491 422.43504447 43.32808327 426.53624075 21.95043945 426.36694336 C19.57231852 426.34869317 17.19459004 426.34643444 14.81640625 426.34667969 C13.26497069 426.34176162 11.7135377 426.33593204 10.16210938 426.32910156 C9.12558983 426.32743233 9.12558983 426.32743233 8.06813049 426.32572937 C1.80509492 426.26734104 -4.19698372 425.68622141 -10.49804688 425.16113281 C-10.49804688 411.63113281 -10.49804688 398.10113281 -10.49804688 384.16113281 C3.31445313 383.34863281 3.31445313 383.34863281 7.59887695 383.11499023 C20.70988348 382.27459997 32.23146882 380.29057729 41.35351562 370.09082031 C50.56119412 357.43593214 49.62341373 340.89787965 49.70118332 325.95925522 C49.71327511 323.8357998 49.73279291 321.71252184 49.75430298 319.58914185 C49.8149247 313.56144381 49.8696339 307.53377384 49.90332031 301.50585938 C50.22164395 247.63858075 50.22164395 247.63858075 67.79882812 229.47753906 C72.28291613 225.63496076 77.15647145 222.43457334 82.14648438 219.29003906 C87.54541716 216.22147451 87.54541716 216.22147451 90.50195312 211.16113281 C89.78394531 210.89429688 89.0659375 210.62746094 88.32617188 210.35253906 C73.20359715 203.97302967 61.94240128 192.35069657 55.25195312 177.53613281 C50.66737595 164.74462935 50.06143636 151.28151252 50.06054688 137.84082031 C50.04872023 136.24194161 50.03534359 134.64307372 50.02052307 133.04421997 C49.98479706 128.88434651 49.96427833 124.72456891 49.94897461 120.5645752 C49.92389323 113.90418283 49.88369538 107.24400209 49.82707405 100.58380508 C49.81107495 98.29148258 49.80699975 95.99937142 49.80406189 93.70700073 C50.08182754 75.050982 50.08182754 75.050982 43.50195312 58.16113281 C43.04175781 57.48695313 42.5815625 56.81277344 42.10742188 56.11816406 C35.77268706 47.90304568 26.40679511 43.80771584 16.27929688 42.46191406 C7.36482283 41.75207487 -1.56134767 41.47287813 -10.49804688 41.16113281 C-10.49804688 27.96113281 -10.49804688 14.76113281 -10.49804688 1.16113281 C-6.72751936 0.53271156 -3.70109974 0.03480368 0 0 Z " fill="#F8801C" transform="translate(639.498046875,298.8388671875)"/>
<path d="M0 0 C1.11513474 -0.00953201 2.23026947 -0.01906403 3.37919617 -0.02888489 C5.18853386 -0.02751778 5.18853386 -0.02751778 7.03442383 -0.02612305 C8.27638016 -0.03040817 9.51833649 -0.0346933 10.79792786 -0.03910828 C13.43004435 -0.04485794 16.06176963 -0.04628074 18.69384766 -0.04101562 C21.3834711 -0.03638982 24.07264205 -0.04327217 26.76220703 -0.06152344 C30.6447521 -0.086095 34.52681047 -0.0901755 38.40942383 -0.08862305 C39.6055278 -0.09783279 40.80163177 -0.10704254 42.03398132 -0.11653137 C51.70744686 -0.06325148 58.49812136 1.51227015 65.67895508 8.28637695 C70.75747417 13.67172324 73.76298674 19.39452291 76.30004883 26.3215332 C76.68526451 27.36176888 76.68526451 27.36176888 77.07826233 28.42301941 C80.04714087 36.50983799 82.80542711 44.66903396 85.56054688 52.83056641 C87.18591468 57.64358186 88.82077158 62.45336839 90.45629883 67.26293945 C90.79245209 68.2515799 91.12860535 69.24022034 91.47494507 70.25881958 C95.11534349 80.9491058 98.82755784 91.61409554 102.55395508 102.2746582 C102.85679413 103.14120026 103.15963318 104.00774231 103.47164917 104.90054321 C104.06374993 106.59427093 104.65615773 108.28789135 105.24888611 109.98139954 C105.8212695 111.61809367 106.39247252 113.25520115 106.9624176 114.89274597 C108.46974184 119.21601643 110.00658697 123.52621426 111.58129883 127.82543945 C111.91121826 128.73720947 112.2411377 129.64897949 112.58105469 130.58837891 C113.21501745 132.33881613 113.85736101 134.08624776 114.50927734 135.83007812 C114.792146 136.61616455 115.07501465 137.40225098 115.36645508 138.2121582 C115.62040039 138.90180664 115.8743457 139.59145508 116.13598633 140.30200195 C116.62483325 142.60917667 116.28358588 144.05598496 115.55395508 146.2746582 C115.55395508 145.6146582 115.55395508 144.9546582 115.55395508 144.2746582 C114.23395508 144.2746582 112.91395508 144.2746582 111.55395508 144.2746582 C110.89395508 143.2846582 110.23395508 142.2946582 109.55395508 141.2746582 C108.56395508 141.6046582 107.57395508 141.9346582 106.55395508 142.2746582 C105.82071712 144.28974178 105.82071712 144.28974178 105.55395508 146.2746582 C104.23395508 146.2746582 102.91395508 146.2746582 101.55395508 146.2746582 C99.88169779 146.57870498 98.21315403 146.90594732 96.55395508 147.2746582 C96.24145508 144.9621582 96.24145508 144.9621582 96.55395508 142.2746582 C99.05395508 140.4621582 99.05395508 140.4621582 101.55395508 139.2746582 C100.23395508 137.2946582 98.91395508 135.3146582 97.55395508 133.2746582 C96.93520508 133.5840332 96.31645508 133.8934082 95.67895508 134.2121582 C94.30395508 134.8996582 92.92895508 135.5871582 91.55395508 136.2746582 C91.55395508 134.6246582 91.55395508 132.9746582 91.55395508 131.2746582 C88.58395508 131.6046582 85.61395508 131.9346582 82.55395508 132.2746582 C82.55395508 133.2646582 82.55395508 134.2546582 82.55395508 135.2746582 C81.89395508 135.6046582 81.23395508 135.9346582 80.55395508 136.2746582 C80.88395508 137.2646582 81.21395508 138.2546582 81.55395508 139.2746582 C82.54395508 139.2746582 83.53395508 139.2746582 84.55395508 139.2746582 C85.21395508 138.6146582 85.87395508 137.9546582 86.55395508 137.2746582 C88.03895508 138.2646582 88.03895508 138.2646582 89.55395508 139.2746582 C88.89395508 140.5946582 88.23395508 141.9146582 87.55395508 143.2746582 C87.55395508 142.6146582 87.55395508 141.9546582 87.55395508 141.2746582 C86.56395508 141.2746582 85.57395508 141.2746582 84.55395508 141.2746582 C85.80372264 144.92782491 86.22494261 146.05531656 89.55395508 148.2746582 C89.55395508 148.9346582 89.55395508 149.5946582 89.55395508 150.2746582 C90.21395508 150.6046582 90.87395508 150.9346582 91.55395508 151.2746582 C91.07958008 151.8521582 90.60520508 152.4296582 90.11645508 153.0246582 C88.60546838 155.20047905 88.01359356 156.70068268 87.55395508 159.2746582 C88.21395508 159.6046582 88.87395508 159.9346582 89.55395508 160.2746582 C88.89395508 161.9246582 88.23395508 163.5746582 87.55395508 165.2746582 C85.57395508 164.9446582 83.59395508 164.6146582 81.55395508 164.2746582 C82.04895508 164.8109082 82.54395508 165.3471582 83.05395508 165.8996582 C84.94865589 168.89960116 84.85739455 170.78510424 84.55395508 174.2746582 C84.22395508 174.9346582 83.89395508 175.5946582 83.55395508 176.2746582 C84.21395508 176.2746582 84.87395508 176.2746582 85.55395508 176.2746582 C85.98708008 175.7590332 86.42020508 175.2434082 86.86645508 174.7121582 C88.55395508 173.2746582 88.55395508 173.2746582 91.05395508 173.3996582 C93.65421424 174.30974891 94.82021966 175.17592585 96.55395508 177.2746582 C95.89395508 177.6046582 95.23395508 177.9346582 94.55395508 178.2746582 C91.92895508 177.3371582 91.92895508 177.3371582 89.55395508 176.2746582 C89.22395508 176.9346582 88.89395508 177.5946582 88.55395508 178.2746582 C87.11645508 179.8996582 87.11645508 179.8996582 85.55395508 181.2746582 C84.89395508 181.2746582 84.23395508 181.2746582 83.55395508 181.2746582 C83.55395508 181.9346582 83.55395508 182.5946582 83.55395508 183.2746582 C86.57815033 182.68662024 89.57153961 182.04787703 92.55395508 181.2746582 C92.55395508 181.9346582 92.55395508 182.5946582 92.55395508 183.2746582 C91.56395508 183.6046582 90.57395508 183.9346582 89.55395508 184.2746582 C90.33034828 187.3491938 90.33034828 187.3491938 92.55395508 189.2746582 C91.56395508 189.2746582 90.57395508 189.2746582 89.55395508 189.2746582 C89.47391026 192.7966303 89.51389806 195.8944729 90.55395508 199.2746582 C88.24395508 198.6146582 85.93395508 197.9546582 83.55395508 197.2746582 C83.73958008 197.8934082 83.92520508 198.5121582 84.11645508 199.1496582 C84.55395508 201.2746582 84.55395508 201.2746582 83.55395508 203.2746582 C84.87395508 203.2746582 86.19395508 203.2746582 87.55395508 203.2746582 C89.17895508 205.6496582 89.17895508 205.6496582 90.55395508 208.2746582 C91.21395508 208.9346582 91.87395508 209.5946582 92.55395508 210.2746582 C91.89395508 210.2746582 91.23395508 210.2746582 90.55395508 210.2746582 C90.55395508 210.9346582 90.55395508 211.5946582 90.55395508 212.2746582 C89.89395508 212.2746582 89.23395508 212.2746582 88.55395508 212.2746582 C90.3958412 214.32736283 90.3958412 214.32736283 92.55395508 215.2746582 C91.89395508 216.5946582 91.23395508 217.9146582 90.55395508 219.2746582 C89.56395508 218.9446582 88.57395508 218.6146582 87.55395508 218.2746582 C88.21395508 218.6046582 88.87395508 218.9346582 89.55395508 219.2746582 C89.55395508 219.9346582 89.55395508 220.5946582 89.55395508 221.2746582 C88.56395508 221.2746582 87.57395508 221.2746582 86.55395508 221.2746582 C85.89395508 220.6146582 85.23395508 219.9546582 84.55395508 219.2746582 C84.88395508 221.2546582 85.21395508 223.2346582 85.55395508 225.2746582 C86.87395508 225.2746582 88.19395508 225.2746582 89.55395508 225.2746582 C91.17895508 227.2746582 91.17895508 227.2746582 92.55395508 229.2746582 C93.21395508 229.2746582 93.87395508 229.2746582 94.55395508 229.2746582 C94.55395508 228.6146582 94.55395508 227.9546582 94.55395508 227.2746582 C95.19333008 227.6046582 95.83270508 227.9346582 96.49145508 228.2746582 C98.32190075 229.34737045 98.32190075 229.34737045 99.55395508 229.2746582 C102.85208863 232.05745838 104.07622416 233.97507997 104.55395508 238.2746582 C103.09989258 238.8624707 103.09989258 238.8624707 101.61645508 239.4621582 C98.33219117 240.95060707 98.33219117 240.95060707 97.67895508 243.9621582 C97.63770508 244.7252832 97.59645508 245.4884082 97.55395508 246.2746582 C98.21395508 246.2746582 98.87395508 246.2746582 99.55395508 246.2746582 C99.55395508 247.5946582 99.55395508 248.9146582 99.55395508 250.2746582 C100.35833008 250.3984082 101.16270508 250.5221582 101.99145508 250.6496582 C102.83708008 250.8559082 103.68270508 251.0621582 104.55395508 251.2746582 C104.88395508 251.9346582 105.21395508 252.5946582 105.55395508 253.2746582 C104.23395508 254.5946582 102.91395508 255.9146582 101.55395508 257.2746582 C102.86291228 260.39663298 102.86291228 260.39663298 105.55395508 262.2746582 C105.05895508 260.7896582 105.05895508 260.7896582 104.55395508 259.2746582 C105.21395508 259.2746582 105.87395508 259.2746582 106.55395508 259.2746582 C106.88395508 256.9646582 107.21395508 254.6546582 107.55395508 252.2746582 C109.20395508 252.2746582 110.85395508 252.2746582 112.55395508 252.2746582 C112.18270508 253.3471582 111.81145508 254.4196582 111.42895508 255.5246582 C110.32982325 259.04056496 110.32982325 259.04056496 111.05395508 261.6496582 C113.25638988 264.03562924 115.41058849 264.00132198 118.55395508 264.2746582 C118.55395508 265.2646582 118.55395508 266.2546582 118.55395508 267.2746582 C119.87395508 267.6046582 121.19395508 267.9346582 122.55395508 268.2746582 C122.88395508 267.6146582 123.21395508 266.9546582 123.55395508 266.2746582 C124.87395508 266.2746582 126.19395508 266.2746582 127.55395508 266.2746582 C127.55395508 266.9346582 127.55395508 267.5946582 127.55395508 268.2746582 C132.50395508 267.9446582 137.45395508 267.6146582 142.55395508 267.2746582 C134.65598507 272.53997154 120.89253026 271.20652306 111.83911133 269.6262207 C99.84973435 266.29029417 90.23211425 259.23010879 83.91601562 248.48925781 C76.59116246 234.40669497 71.36119846 219.43761653 65.84879684 204.58163452 C64.39906915 200.68063775 62.93904982 196.78349648 61.47998047 192.88598633 C59.18580999 186.75438908 56.89670251 180.62093132 54.61254883 174.4855957 C51.20984123 165.3460239 47.786737 156.21416759 44.35827637 147.08422852 C43.48988489 144.77047457 42.6227801 142.45624251 41.75610352 140.1418457 C36.92353343 127.23854433 32.05267213 114.34981571 27.17767334 101.4624939 C23.04526384 90.53723027 18.92425526 79.60783849 14.82739258 68.66918945 C14.43543198 67.62276779 14.04347137 66.57634613 13.63963318 65.49821472 C11.70228447 60.324944 9.76655011 55.15107456 7.83251953 49.9765625 C4.66732594 41.51592925 1.4953976 33.05999584 -1.80151367 24.6496582 C-2.27983643 23.42657959 -2.75815918 22.20350098 -3.25097656 20.94335938 C-4.09512175 18.79716669 -4.94648353 16.65378949 -5.80712891 14.51416016 C-6.16492432 13.60625732 -6.52271973 12.69835449 -6.89135742 11.76293945 C-7.1957373 11.00537354 -7.50011719 10.24780762 -7.8137207 9.46728516 C-8.55217323 6.90665112 -8.76775249 4.92419316 -8.44604492 2.2746582 C-5.08007651 0.03067926 -3.93916757 0.01848559 0 0 Z M78.55395508 140.2746582 C78.55395508 140.9346582 78.55395508 141.5946582 78.55395508 142.2746582 C79.54395508 141.9446582 80.53395508 141.6146582 81.55395508 141.2746582 C80.56395508 140.9446582 79.57395508 140.6146582 78.55395508 140.2746582 Z M81.55395508 146.2746582 C81.55395508 147.5946582 81.55395508 148.9146582 81.55395508 150.2746582 C82.54395508 150.2746582 83.53395508 150.2746582 84.55395508 150.2746582 C84.55395508 148.9546582 84.55395508 147.6346582 84.55395508 146.2746582 C83.56395508 146.2746582 82.57395508 146.2746582 81.55395508 146.2746582 Z M110.55395508 263.2746582 C110.55395508 263.9346582 110.55395508 264.5946582 110.55395508 265.2746582 C111.21395508 265.2746582 111.87395508 265.2746582 112.55395508 265.2746582 C112.55395508 264.6146582 112.55395508 263.9546582 112.55395508 263.2746582 C111.89395508 263.2746582 111.23395508 263.2746582 110.55395508 263.2746582 Z M102.55395508 256.2746582 C103.21395508 256.2746582 103.87395508 256.2746582 104.55395508 256.2746582 C104.55395508 256.9346582 104.55395508 257.5946582 104.55395508 258.2746582 C103.89395508 258.2746582 103.23395508 258.2746582 102.55395508 258.2746582 C102.55395508 257.6146582 102.55395508 256.9546582 102.55395508 256.2746582 Z " fill="#E14425" transform="translate(385.446044921875,382.725341796875)"/>
<path d="M0 0 C0.83527222 -0.00960754 1.67054443 -0.01921509 2.53112793 -0.02911377 C3.41868774 -0.03336365 4.30624756 -0.03761353 5.22070312 -0.04199219 C6.62310242 -0.0505423 6.62310242 -0.0505423 8.05383301 -0.05926514 C10.03066894 -0.06868726 12.00752039 -0.075238 13.984375 -0.07910156 C16.96448333 -0.08874593 19.94388314 -0.11977069 22.92382812 -0.15136719 C36.54446402 -0.22910859 49.46751905 0.25276638 61.75195312 6.84863281 C62.42033203 7.19748535 63.08871094 7.54633789 63.77734375 7.90576172 C80.86781349 17.09911343 90.7121005 31.4548594 96.87695312 49.66113281 C100.1367261 61.48607927 99.64992556 74.03009148 99.70118332 86.21430969 C99.71320788 88.82372968 99.73270974 91.43300085 99.75430298 94.0423584 C99.81516958 101.45055092 99.86988889 108.85871792 99.90332031 116.26708984 C99.92443826 120.82862901 99.95985656 125.38987708 100.00407791 129.95124817 C100.01808091 131.67011566 100.02692414 133.3890344 100.03013229 135.10795593 C100.05309576 146.22446649 100.18329336 157.4601481 104.66415405 167.85803223 C106.04511518 171.65427943 103.74967582 175.41796472 102.50195312 179.16113281 C99.95951813 179.16113281 97.41599393 179.10496251 94.87695312 178.97363281 C93.76320313 179.03550781 92.64945313 179.09738281 91.50195312 179.16113281 C90.84195313 180.15113281 90.18195313 181.14113281 89.50195312 182.16113281 C88.84195313 182.16113281 88.18195313 182.16113281 87.50195312 182.16113281 C87.17195312 183.48113281 86.84195313 184.80113281 86.50195312 186.16113281 C86.83195313 185.83113281 87.16195312 185.50113281 87.50195312 185.16113281 C88.49195313 184.83113281 89.48195313 184.50113281 90.50195312 184.16113281 C91.98695313 185.15113281 91.98695313 185.15113281 93.50195312 186.16113281 C93.79492188 188.32519531 93.79492188 188.32519531 93.68945312 190.78613281 C93.64884766 192.01203125 93.64884766 192.01203125 93.60742188 193.26269531 C93.55521484 194.20242188 93.55521484 194.20242188 93.50195312 195.16113281 C92.51195312 195.49113281 91.52195312 195.82113281 90.50195312 196.16113281 C90.50195312 197.15113281 90.50195312 198.14113281 90.50195312 199.16113281 C89.51195312 199.16113281 88.52195312 199.16113281 87.50195312 199.16113281 C87.39882813 199.94488281 87.29570313 200.72863281 87.18945312 201.53613281 C86.50195312 204.16113281 86.50195312 204.16113281 83.50195312 206.16113281 C83.50195312 205.50113281 83.50195312 204.84113281 83.50195312 204.16113281 C82.51195312 203.83113281 81.52195312 203.50113281 80.50195312 203.16113281 C81.16195312 201.51113281 81.82195312 199.86113281 82.50195312 198.16113281 C81.88320313 198.47050781 81.26445313 198.77988281 80.62695312 199.09863281 C79.25195312 199.78613281 77.87695312 200.47363281 76.50195312 201.16113281 C77.49195313 202.15113281 78.48195313 203.14113281 79.50195312 204.16113281 C68.20779844 200.28253521 61.56199273 189.95378947 56.29101562 179.83691406 C50.40659987 166.80713631 50.06147649 151.88787157 50.06054688 137.84082031 C50.04872023 136.24194161 50.03534359 134.64307372 50.02052307 133.04421997 C49.98479706 128.88434651 49.96427833 124.72456891 49.94897461 120.5645752 C49.92389323 113.90418283 49.88369538 107.24400209 49.82707405 100.58380508 C49.81107495 98.29148258 49.80699975 95.99937142 49.80406189 93.70700073 C50.08182754 75.050982 50.08182754 75.050982 43.50195312 58.16113281 C43.04175781 57.48695313 42.5815625 56.81277344 42.10742188 56.11816406 C35.77268706 47.90304568 26.40679511 43.80771584 16.27929688 42.46191406 C7.36482283 41.75207487 -1.56134767 41.47287813 -10.49804688 41.16113281 C-10.49804688 27.96113281 -10.49804688 14.76113281 -10.49804688 1.16113281 C-6.72751936 0.53271156 -3.70109974 0.03480368 0 0 Z " fill="#F75F1E" transform="translate(639.498046875,298.8388671875)"/>
<path d="M0 0 C3.21203185 0.03138474 6.4235715 0.04100624 9.63574219 0.046875 C11.69564398 0.05603874 13.75554081 0.0664125 15.81542969 0.078125 C16.76658661 0.08237488 17.71774353 0.08662476 18.69772339 0.09100342 C19.59621002 0.10061096 20.49469666 0.11021851 21.42041016 0.12011719 C22.59070267 0.13035919 22.59070267 0.13035919 23.78463745 0.14080811 C26.98192802 0.31769013 30.15324611 0.82839342 33.32324219 1.28125 C32.99324219 14.48125 32.66324219 27.68125 32.32324219 41.28125 C16.94824219 42.03125 16.94824219 42.03125 12.16162109 42.23730469 C0.03661593 42.91491909 -9.87843876 45.43246258 -18.67675781 54.28125 C-28.64745948 67.5612852 -27.80199386 83.00233303 -27.99316406 98.890625 C-28.01379425 100.35321558 -28.03479201 101.81580102 -28.05613708 103.27838135 C-28.1107329 107.08565036 -28.16041151 110.89296741 -28.20898438 114.70031738 C-28.25966261 118.60233723 -28.3151042 122.50428928 -28.37011719 126.40625 C-28.4769316 134.03119221 -28.57853929 141.65619169 -28.67675781 149.28125 C-29.00675781 149.28125 -29.33675781 149.28125 -29.67675781 149.28125 C-30.33675781 151.92125 -30.99675781 154.56125 -31.67675781 157.28125 C-33.65675781 157.28125 -35.63675781 157.28125 -37.67675781 157.28125 C-37.67675781 157.94125 -37.67675781 158.60125 -37.67675781 159.28125 C-39.61425781 158.90625 -39.61425781 158.90625 -41.67675781 158.28125 C-42.00675781 157.62125 -42.33675781 156.96125 -42.67675781 156.28125 C-43.66675781 155.95125 -44.65675781 155.62125 -45.67675781 155.28125 C-45.34675781 154.62125 -45.01675781 153.96125 -44.67675781 153.28125 C-46.80040262 153.05515663 -46.80040262 153.05515663 -48.30175781 154.78125 C-48.75550781 155.27625 -49.20925781 155.77125 -49.67675781 156.28125 C-50.00675781 155.29125 -50.33675781 154.30125 -50.67675781 153.28125 C-54.55520541 155.09055062 -58.06505593 156.7691275 -61.36425781 159.53125 C-64.11457808 161.61257344 -65.32578577 161.45761695 -68.67675781 161.28125 C-70.16175781 162.27125 -70.16175781 162.27125 -71.67675781 163.28125 C-71.51175781 162.20875 -71.34675781 161.13625 -71.17675781 160.03125 C-70.58864867 156.25096248 -70.58864867 156.25096248 -70.67675781 152.28125 C-70.01675781 151.29125 -69.35675781 150.30125 -68.67675781 149.28125 C-68.2917589 147.62575469 -67.94882647 145.9590067 -67.67675781 144.28125 C-67.34675781 145.27125 -67.01675781 146.26125 -66.67675781 147.28125 C-66.01675781 147.28125 -65.35675781 147.28125 -64.67675781 147.28125 C-64.66257812 146.68957031 -64.64839844 146.09789062 -64.63378906 145.48828125 C-64.35822057 140.92278157 -64.14397849 138.83963569 -61.11425781 135.21875 C-60.30988281 134.579375 -59.50550781 133.94 -58.67675781 133.28125 C-59.99675781 133.28125 -61.31675781 133.28125 -62.67675781 133.28125 C-63.33675781 132.95125 -63.99675781 132.62125 -64.67675781 132.28125 C-65.33675781 133.27125 -65.99675781 134.26125 -66.67675781 135.28125 C-67.33675781 135.28125 -67.99675781 135.28125 -68.67675781 135.28125 C-69.00675781 135.61125 -69.33675781 135.94125 -69.67675781 136.28125 C-70.33675781 136.28125 -70.99675781 136.28125 -71.67675781 136.28125 C-72.17175781 137.27125 -72.17175781 137.27125 -72.67675781 138.28125 C-71.68675781 138.28125 -70.69675781 138.28125 -69.67675781 138.28125 C-70.17175781 140.26125 -70.17175781 140.26125 -70.67675781 142.28125 C-71.33675781 142.28125 -71.99675781 142.28125 -72.67675781 142.28125 C-72.67675781 141.62125 -72.67675781 140.96125 -72.67675781 140.28125 C-73.33675781 140.28125 -73.99675781 140.28125 -74.67675781 140.28125 C-75.17175781 141.27125 -75.17175781 141.27125 -75.67675781 142.28125 C-76.33675781 141.95125 -76.99675781 141.62125 -77.67675781 141.28125 C-77.85581262 132.76079162 -78.02157766 124.24021159 -78.17153358 115.71919632 C-78.24159785 111.76023521 -78.31581318 107.8014532 -78.40039062 103.84277344 C-79.72291497 41.40331885 -79.72291497 41.40331885 -57.91113281 18.45703125 C-41.30870643 2.28998318 -22.08591867 -0.21779642 0 0 Z " fill="#E04E2D" transform="translate(362.6767578125,298.71875)"/>
<path d="M0 0 C1.12718736 3.62572682 1.14421286 7.04300117 1.17358398 10.82543945 C1.180271 11.50418625 1.18695801 12.18293304 1.19384766 12.88224792 C1.20787272 14.35432982 1.21977483 15.82643314 1.22979546 17.29854774 C1.24630166 19.64280925 1.26955095 21.98691659 1.29469299 24.33110046 C1.36514591 30.99612607 1.42505393 37.66121964 1.47680664 44.32641602 C1.50898494 48.40954486 1.55036526 52.49250295 1.59700203 56.57549095 C1.61281045 58.1176966 1.62522682 59.65994152 1.63390923 61.20220375 C1.58483145 85.44499598 1.58483145 85.44499598 12.8671875 106.140625 C20.29648582 112.61744917 28.01063102 115.00716946 37.609375 115.53515625 C38.25406738 115.57346558 38.89875977 115.6117749 39.56298828 115.65124512 C41.95841803 115.79247578 44.3542336 115.92710005 46.75 116.0625 C52.1125 116.371875 57.475 116.68125 63 117 C63 130.53 63 144.06 63 158 C52.15965714 158.60224127 41.46593925 159.18662588 30.62939453 159.18530273 C28.60298656 159.18752413 26.57709662 159.20591464 24.55078125 159.22460938 C3.79099256 159.31592395 -14.26721844 153.88307045 -29.61328125 139.4765625 C-36.88060503 131.93567334 -41.49451889 123.82349939 -45 114 C-45.32783478 113.12906204 -45.65566956 112.25812408 -45.99343872 111.36079407 C-47.18855981 107.37042016 -47.69941652 103.53732451 -48.11279297 99.40307617 C-48.19715544 98.57358302 -48.28151791 97.74408987 -48.36843681 96.88946056 C-49.25144404 87.4440437 -49.2520242 78.02880952 -49.1953125 68.55078125 C-49.19156873 66.67221734 -49.18872824 64.79365143 -49.18673706 62.91508484 C-49.17920777 58.04086635 -49.15965539 53.16677269 -49.1373291 48.29260254 C-49.1166359 43.29078865 -49.10768587 38.288954 -49.09765625 33.28710938 C-49.07639603 23.52468562 -49.04239465 13.76235331 -49 4 C-48.67 4 -48.34 4 -48 4 C-48 24.79 -48 45.58 -48 67 C-45.03 66.505 -45.03 66.505 -42 66 C-42 65.34 -42 64.68 -42 64 C-41.34 64.33 -40.68 64.66 -40 65 C-40.66 65.99 -41.32 66.98 -42 68 C-42.66 67.67 -43.32 67.34 -44 67 C-43.855625 67.556875 -43.71125 68.11375 -43.5625 68.6875 C-43.2840625 69.8321875 -43.2840625 69.8321875 -43 71 C-42.690625 72.1446875 -42.690625 72.1446875 -42.375 73.3125 C-41.90197324 76.70252511 -42.40802522 79.64547623 -43 83 C-42.34 80.69 -41.68 78.38 -41 76 C-40.195625 76.495 -39.39125 76.99 -38.5625 77.5 C-36.35103815 79.08419653 -36.35103815 79.08419653 -35 79 C-33.32260138 78.01810813 -31.65532623 77.01866229 -30 76 C-30.66 75.67 -31.32 75.34 -32 75 C-32.33 75.99 -32.66 76.98 -33 78 C-35 77 -35 77 -36 74 C-36.65129797 72.65909241 -37.31513275 71.32407669 -38 70 C-37.01 69.01 -37.01 69.01 -36 68 C-36.16442277 64.93008319 -36.16442277 64.93008319 -37 62 C-37.66 61.67 -38.32 61.34 -39 61 C-37.515 60.505 -37.515 60.505 -36 60 C-35.67 59.01 -35.34 58.02 -35 57 C-35.66 57 -36.32 57 -37 57 C-37 56.01 -37 55.02 -37 54 C-37.99 53.67 -38.98 53.34 -40 53 C-39.34 52.01 -38.68 51.02 -38 50 C-38 49.34 -38 48.68 -38 48 C-38.66 48 -39.32 48 -40 48 C-40 48.66 -40 49.32 -40 50 C-40.99 50 -41.98 50 -43 50 C-42 47 -42 47 -40 44 C-40.66 43.67 -41.32 43.34 -42 43 C-41.01 43 -40.02 43 -39 43 C-38.67 44.32 -38.34 45.64 -38 47 C-36.02 46.505 -36.02 46.505 -34 46 C-34 46.66 -34 47.32 -34 48 C-33.34 48.33 -32.68 48.66 -32 49 C-31.67 49.99 -31.34 50.98 -31 52 C-31 50.68 -31 49.36 -31 48 C-31.66 47.67 -32.32 47.34 -33 47 C-32.3125 44.625 -32.3125 44.625 -31 42 C-28.08543662 40.43061972 -26.32058331 40 -23 40 C-22.67 41.32 -22.34 42.64 -22 44 C-21.34 44 -20.68 44 -20 44 C-20 43.34 -20 42.68 -20 42 C-20.66 41.34 -21.32 40.68 -22 40 C-21.34 40 -20.68 40 -20 40 C-20 39.34 -20 38.68 -20 38 C-18.68 38 -17.36 38 -16 38 C-16.474375 37.54625 -16.94875 37.0925 -17.4375 36.625 C-19 35 -19 35 -20 33 C-22.02463255 32.34786708 -22.02463255 32.34786708 -24 32 C-22.02 31.34 -20.04 30.68 -18 30 C-18 30.66 -18 31.32 -18 32 C-17.01 32 -16.02 32 -15 32 C-15 30.35 -15 28.7 -15 27 C-15.66 26.67 -16.32 26.34 -17 26 C-17.4640625 25.01 -17.4640625 25.01 -17.9375 24 C-18.8891846 21.65391779 -18.8891846 21.65391779 -22 21 C-22 20.34 -22 19.68 -22 19 C-20.68 18.67 -19.36 18.34 -18 18 C-17.896875 17.21625 -17.79375 16.4325 -17.6875 15.625 C-17 13 -17 13 -14 11 C-12.68 11.66 -11.36 12.32 -10 13 C-10 12.34 -10 11.68 -10 11 C-9.34 11 -8.68 11 -8 11 C-8 12.65 -8 14.3 -8 16 C-7.34 16 -6.68 16 -6 16 C-6.20625 15.401875 -6.4125 14.80375 -6.625 14.1875 C-7 12 -7 12 -5 9 C-4.97250522 6.93089407 -4.97250522 6.93089407 -5.375 4.8125 C-5.58125 3.554375 -5.7875 2.29625 -6 1 C-3 0 -3 0 0 0 Z M-13 14 C-13.69710731 15.28650706 -14.38242876 16.57940665 -15.0625 17.875 C-15.44535156 18.59429688 -15.82820313 19.31359375 -16.22265625 20.0546875 C-16.47917969 20.69664062 -16.73570312 21.33859375 -17 22 C-16.67 22.66 -16.34 23.32 -16 24 C-15.05125 23.195625 -14.1025 22.39125 -13.125 21.5625 C-11.42067644 20.11753003 -10.00519014 19.00259507 -8 18 C-8.33 17.34 -8.66 16.68 -9 16 C-9.66 16 -10.32 16 -11 16 C-11.66 15.34 -12.32 14.68 -13 14 Z M-24 45 C-23 47 -23 47 -23 47 Z M-28 71 C-28.33 71.99 -28.66 72.98 -29 74 C-27.35 73.34 -25.7 72.68 -24 72 C-25.32 71.67 -26.64 71.34 -28 71 Z M-40 73 C-39.01 73.33 -38.02 73.66 -37 74 C-37.99 74.33 -38.98 74.66 -40 75 C-40 74.34 -40 73.68 -40 73 Z " fill="#DA3F26" transform="translate(333,566)"/>
<path d="M0 0 C0.433125 0.598125 0.86625 1.19625 1.3125 1.8125 C2.86104329 3.95667714 2.86104329 3.95667714 4.49005127 5.33679199 C6.35062921 7.38621796 6.9736512 9.17487917 7.84667969 11.79882812 C8.17897583 12.7825238 8.51127197 13.76621948 8.8536377 14.77972412 C9.20615601 15.85272766 9.55867432 16.9257312 9.921875 18.03125 C10.2988855 19.15404358 10.675896 20.27683716 11.06433105 21.43365479 C11.87684772 23.85629963 12.68537446 26.2802855 13.49035645 28.70544434 C14.7562609 32.51886038 16.03168817 36.32893989 17.31152344 40.13769531 C17.6316786 41.09052084 17.6316786 41.09052084 17.95830154 42.06259537 C18.39075723 43.34949423 18.82326385 44.63637598 19.25582123 45.92324066 C19.90841537 47.86582065 20.55992083 49.80876312 21.21124268 51.75177002 C25.13511018 63.44919054 29.16908884 75.10656863 33.25 86.75 C33.54547729 87.59409424 33.84095459 88.43818848 34.14538574 89.30786133 C34.7193239 90.94738526 35.29359701 92.58679197 35.8682251 94.22607422 C36.41693995 95.7924327 36.96461944 97.35915435 37.51116943 98.92626953 C38.97961744 103.12875122 40.47807892 107.31816122 42.00976562 111.49804688 C42.33950378 112.40927307 42.66924194 113.32049927 43.00897217 114.25933838 C43.644781 116.01526246 44.28896254 117.76818428 44.94268799 119.51751709 C45.36889435 120.70235687 45.36889435 120.70235687 45.80371094 121.91113281 C46.18701569 122.95276581 46.18701569 122.95276581 46.57806396 124.01544189 C47.07013557 126.32987967 46.73328781 127.77443996 46 130 C46 129.34 46 128.68 46 128 C44.68 128 43.36 128 42 128 C41.34 127.01 40.68 126.02 40 125 C39.01 125.33 38.02 125.66 37 126 C36.26676204 128.01508358 36.26676204 128.01508358 36 130 C34.68 130 33.36 130 32 130 C30.32774271 130.30404678 28.65919896 130.63128912 27 131 C26.6875 128.6875 26.6875 128.6875 27 126 C29.5 124.1875 29.5 124.1875 32 123 C30.68 121.02 29.36 119.04 28 117 C27.38125 117.309375 26.7625 117.61875 26.125 117.9375 C24.75 118.625 23.375 119.3125 22 120 C22 118.35 22 116.7 22 115 C17.545 115.495 17.545 115.495 13 116 C13 116.99 13 117.98 13 119 C12.01 119.495 12.01 119.495 11 120 C11.33 120.99 11.66 121.98 12 123 C12.99 123 13.98 123 15 123 C15.66 122.34 16.32 121.68 17 121 C17.99 121.66 18.98 122.32 20 123 C19.34 124.32 18.68 125.64 18 127 C18 126.34 18 125.68 18 125 C17.01 125 16.02 125 15 125 C16.24976756 128.65316671 16.67098753 129.78065836 20 132 C20 132.66 20 133.32 20 134 C20.66 134.33 21.32 134.66 22 135 C21.525625 135.5775 21.05125 136.155 20.5625 136.75 C19.0515133 138.92582084 18.45963849 140.42602448 18 143 C18.66 143.33 19.32 143.66 20 144 C19.34 145.65 18.68 147.3 18 149 C16.02 148.67 14.04 148.34 12 148 C12.7425 148.804375 12.7425 148.804375 13.5 149.625 C15.39470082 152.62494296 15.30343947 154.51044604 15 158 C14.67 158.66 14.34 159.32 14 160 C14.66 160 15.32 160 16 160 C16.433125 159.484375 16.86625 158.96875 17.3125 158.4375 C19 157 19 157 21.5 157.125 C24.10025916 158.03509071 25.26626458 158.90126765 27 161 C26.34 161.33 25.68 161.66 25 162 C22.375 161.0625 22.375 161.0625 20 160 C19.67 160.66 19.34 161.32 19 162 C17.5625 163.625 17.5625 163.625 16 165 C15.34 165 14.68 165 14 165 C14 165.66 14 166.32 14 167 C17.02419525 166.41196203 20.01758453 165.77321882 23 165 C23 165.66 23 166.32 23 167 C22.01 167.33 21.02 167.66 20 168 C20.7763932 171.0745356 20.7763932 171.0745356 23 173 C22.01 173 21.02 173 20 173 C19.91995518 176.5219721 19.95994298 179.61981469 21 183 C18.69 182.34 16.38 181.68 14 181 C14.185625 181.61875 14.37125 182.2375 14.5625 182.875 C15 185 15 185 14 187 C15.32 187 16.64 187 18 187 C19.625 189.375 19.625 189.375 21 192 C21.99 192.99 21.99 192.99 23 194 C22.34 194 21.68 194 21 194 C21 194.66 21 195.32 21 196 C20.34 196 19.68 196 19 196 C20.84188612 198.05270463 20.84188612 198.05270463 23 199 C22.34 200.32 21.68 201.64 21 203 C20.01 202.67 19.02 202.34 18 202 C18.66 202.33 19.32 202.66 20 203 C20 203.66 20 204.32 20 205 C19.01 205 18.02 205 17 205 C16.01 204.01 16.01 204.01 15 203 C15.33 204.98 15.66 206.96 16 209 C17.32 209 18.64 209 20 209 C21.625 211 21.625 211 23 213 C23.66 213 24.32 213 25 213 C25 212.34 25 211.68 25 211 C25.639375 211.33 26.27875 211.66 26.9375 212 C28.76794567 213.07271225 28.76794567 213.07271225 30 213 C33.29813355 215.78280018 34.52226908 217.70042176 35 222 C33.5459375 222.5878125 33.5459375 222.5878125 32.0625 223.1875 C28.77823609 224.67594887 28.77823609 224.67594887 28.125 227.6875 C28.08375 228.450625 28.0425 229.21375 28 230 C28.66 230 29.32 230 30 230 C30 231.32 30 232.64 30 234 C31.2065625 234.185625 31.2065625 234.185625 32.4375 234.375 C33.283125 234.58125 34.12875 234.7875 35 235 C35.33 235.66 35.66 236.32 36 237 C34.02 238.98 34.02 238.98 32 241 C33.3089572 244.12197478 33.3089572 244.12197478 36 246 C35.67 245.01 35.34 244.02 35 243 C35.66 243 36.32 243 37 243 C37.33 240.69 37.66 238.38 38 236 C39.65 236 41.3 236 43 236 C42.62875 237.0725 42.2575 238.145 41.875 239.25 C40.77586817 242.76590676 40.77586817 242.76590676 41.5 245.375 C43.7024348 247.76097103 45.85663341 247.72666378 49 248 C49 248.99 49 249.98 49 251 C50.32 251.33 51.64 251.66 53 252 C53.33 251.34 53.66 250.68 54 250 C55.32 250 56.64 250 58 250 C58 250.66 58 251.32 58 252 C62.95 251.67 67.9 251.34 73 251 C65.10202999 256.26531334 51.33857518 254.93186486 42.28515625 253.3515625 C30.24418603 250.00128066 20.50217433 242.88249538 14.28735352 232.00146484 C8.17351921 220.28519711 3.53668604 208.00380631 -1.09350586 195.64331055 C-2.44598671 192.03988881 -3.81886551 188.44468366 -5.19335938 184.84960938 C-6.06633435 182.53692232 -6.93812211 180.2237867 -7.80859375 177.91015625 C-8.21581161 176.84749039 -8.62302948 175.78482452 -9.04258728 174.68995667 C-11.2638628 168.70687488 -12.5958459 163.37651539 -13 157 C-12.01 157 -11.02 157 -10 157 C-10.165 155.741875 -10.33 154.48375 -10.5 153.1875 C-10.82158241 150.73543415 -11 148.48349306 -11 146 C-9.02 145.01 -9.02 145.01 -7 144 C-7 143.34 -7 142.68 -7 142 C-6.01 142 -5.02 142 -4 142 C-4 141.34 -4 140.68 -4 140 C-5.32 139.67 -6.64 139.34 -8 139 C-7.67 138.34 -7.34 137.68 -7 137 C-6.34 137 -5.68 137 -5 137 C-5 136.34 -5 135.68 -5 135 C-4.01 134.67 -3.02 134.34 -2 134 C-1.26676204 131.98491642 -1.26676204 131.98491642 -1 130 C-0.34 130 0.32 130 1 130 C1 128.68 1 127.36 1 126 C-0.299375 126.12375 -1.59875 126.2475 -2.9375 126.375 C-3.66839844 126.44460938 -4.39929688 126.51421875 -5.15234375 126.5859375 C-6.06693359 126.79089844 -6.06693359 126.79089844 -7 127 C-7.33 127.66 -7.66 128.32 -8 129 C-10.5625 129.625 -10.5625 129.625 -13 130 C-14 124.25 -14 124.25 -14 122 C-13.01 122.33 -12.02 122.66 -11 123 C-11.57344937 120.13275314 -11.8614515 119.1385485 -14 117 C-12.35 117.33 -10.7 117.66 -9 118 C-8.67 118.99 -8.34 119.98 -8 121 C-6.68 121 -5.36 121 -4 121 C-4 120.01 -4 119.02 -4 118 C-3.34 118 -2.68 118 -2 118 C-2 118.66 -2 119.32 -2 120 C-1.34 120.33 -0.68 120.66 0 121 C0 121.66 0 122.32 0 123 C0.433125 122.236875 0.86625 121.47375 1.3125 120.6875 C2.73686785 118.41906232 4.03260097 116.7800277 6 115 C6.33 116.65 6.66 118.3 7 120 C7.66 120 8.32 120 9 120 C8.835 119.195625 8.67 118.39125 8.5 117.5625 C8 115 8 115 8 114 C7.34 113.67 6.68 113.34 6 113 C6.33 112.34 6.66 111.68 7 111 C7.66 111 8.32 111 9 111 C8.01 110.01 8.01 110.01 7 109 C6.01 109.495 6.01 109.495 5 110 C5.33 108.02 5.66 106.04 6 104 C5.34 103.67 4.68 103.34 4 103 C4.66 100.36 5.32 97.72 6 95 C7.98 94.505 7.98 94.505 10 94 C10 94.66 10 95.32 10 96 C10.99 95.01 11.98 94.02 13 93 C10.32357511 90.81509993 10.32357511 90.81509993 8 91 C7.67 91.66 7.34 92.32 7 93 C3.9375 93.625 3.9375 93.625 1 94 C1 93.34 1 92.68 1 92 C0.34 92 -0.32 92 -1 92 C-1 91.01 -1 90.02 -1 89 C-2.65 88.67 -4.3 88.34 -6 88 C-5.505 86.515 -5.505 86.515 -5 85 C-4.01 84.505 -4.01 84.505 -3 84 C-3.66 83.34 -4.32 82.68 -5 82 C-4.34 80.35 -3.68 78.7 -3 77 C-0.69 77.99 1.62 78.98 4 80 C4 79.34 4 78.68 4 78 C2.35 77.67 0.7 77.34 -1 77 C-1 76.34 -1 75.68 -1 75 C-0.34 75 0.32 75 1 75 C1 73.68 1 72.36 1 71 C2.485 70.505 2.485 70.505 4 70 C2.68 69.67 1.36 69.34 0 69 C-0.33 70.32 -0.66 71.64 -1 73 C-1.33 72.01 -1.66 71.02 -2 70 C-2.99 70.99 -2.99 70.99 -4 72 C-4 71.01 -4 70.02 -4 69 C-4.66 69 -5.32 69 -6 69 C-6.33 69.99 -6.66 70.98 -7 72 C-7 69.69 -7 67.38 -7 65 C-6.01 64.505 -6.01 64.505 -5 64 C-4.67 63.01 -4.34 62.02 -4 61 C-2.515 61.495 -2.515 61.495 -1 62 C-1 62.66 -1 63.32 -1 64 C-1.66 64 -2.32 64 -3 64 C-3 64.66 -3 65.32 -3 66 C-2.05125 65.814375 -1.1025 65.62875 -0.125 65.4375 C3 65 3 65 5 66 C5.33 64.35 5.66 62.7 6 61 C5.21625 60.71125 4.4325 60.4225 3.625 60.125 C1 59 1 59 -1 57 C-1.33 57.99 -1.66 58.98 -2 60 C-2 59.01 -2 58.02 -2 57 C-2.66 57 -3.32 57 -4 57 C-4 57.66 -4 58.32 -4 59 C-5.32 58.67 -6.64 58.34 -8 58 C-7.34 58 -6.68 58 -6 58 C-5.34 56.35 -4.68 54.7 -4 53 C-3.01 53 -2.02 53 -1 53 C-1.33 52.01 -1.66 51.02 -2 50 C-2.66 49.67 -3.32 49.34 -4 49 C-4 45.38970831 -3.03907418 42.44193324 -2 39 C-2.78375 39.804375 -3.5675 40.60875 -4.375 41.4375 C-7 44 -7 44 -9 45 C-8.67 43.68 -8.34 42.36 -8 41 C-9.09283577 39.96704564 -10.19970579 38.94892165 -11.3125 37.9375 C-11.92738281 37.36902344 -12.54226563 36.80054688 -13.17578125 36.21484375 C-13.77777344 35.81394531 -14.37976563 35.41304688 -15 35 C-16.485 35.495 -16.485 35.495 -18 36 C-18 35.01 -18 34.02 -18 33 C-16.68 33 -15.36 33 -14 33 C-14.495 31.515 -14.495 31.515 -15 30 C-13.02 29.67 -11.04 29.34 -9 29 C-9.83333333 26.83333333 -9.83333333 26.83333333 -12 26 C-13.125 23.9375 -13.125 23.9375 -14 22 C-13.34 22 -12.68 22 -12 22 C-11.67 21.01 -11.34 20.02 -11 19 C-10.34 19.33 -9.68 19.66 -9 20 C-9 19.01 -9 18.02 -9 17 C-10.65 18.32 -12.3 19.64 -14 21 C-14.66 20.67 -15.32 20.34 -16 20 C-16.33 20.99 -16.66 21.98 -17 23 C-17.99 23.33 -18.98 23.66 -20 24 C-20 23.34 -20 22.68 -20 22 C-20.66 22 -21.32 22 -22 22 C-22 21.34 -22 20.68 -22 20 C-21.01 20 -20.02 20 -19 20 C-20.65 19.67 -22.3 19.34 -24 19 C-23.67 17.35 -23.34 15.7 -23 14 C-22.34 14 -21.68 14 -21 14 C-19.29209912 12.79252059 -19.29209912 12.79252059 -18 11 C-18 9.68 -18 8.36 -18 7 C-17.34 6.01 -16.68 5.02 -16 4 C-14 5 -12 6 -10 7 C-9.95875 6.38125 -9.9175 5.7625 -9.875 5.125 C-9.441875 4.073125 -9.441875 4.073125 -9 3 C-5.9375 1.75 -5.9375 1.75 -3 1 C-3 1.66 -3 2.32 -3 3 C-2.34 3 -1.68 3 -1 3 C-0.67 2.01 -0.34 1.02 0 0 Z M9 124 C9 124.66 9 125.32 9 126 C9.99 125.67 10.98 125.34 12 125 C11.01 124.67 10.02 124.34 9 124 Z M12 130 C12 131.32 12 132.64 12 134 C12.99 134 13.98 134 15 134 C15 132.68 15 131.36 15 130 C14.01 130 13.02 130 12 130 Z M41 247 C41 247.66 41 248.32 41 249 C41.66 249 42.32 249 43 249 C43 248.34 43 247.68 43 247 C42.34 247 41.68 247 41 247 Z M33 240 C33.66 240 34.32 240 35 240 C35 240.66 35 241.32 35 242 C34.34 242 33.68 242 33 242 C33 241.34 33 240.68 33 240 Z " fill="#E75024" transform="translate(455,399)"/>
<path d="M0 0 C7.77784995 -0.07593214 15.55560468 -0.12855012 23.33374023 -0.16479492 C25.98091199 -0.1799012 28.62805864 -0.2003873 31.27514648 -0.22631836 C35.07542101 -0.26261991 38.87536526 -0.27970803 42.67578125 -0.29296875 C44.45714226 -0.31619453 44.45714226 -0.31619453 46.27449036 -0.33988953 C47.37540512 -0.34011612 48.47631989 -0.34034271 49.6105957 -0.34057617 C51.06620659 -0.35056892 51.06620659 -0.35056892 52.55122375 -0.36076355 C55.38720847 0.05704511 56.25648828 0.78349477 58 3 C56.32273641 9.47114464 54.62320994 15.84115928 52 22 C51.01 22.495 51.01 22.495 50 23 C48.86897474 25.34038186 48.86897474 25.34038186 47.875 28.0625 C47.34519531 29.44115234 47.34519531 29.44115234 46.8046875 30.84765625 C46.53914062 31.55792969 46.27359375 32.26820313 46 33 C45.67 32.34 45.34 31.68 45 31 C44.34 31 43.68 31 43 31 C42.67 31.66 42.34 32.32 42 33 C41.01 32.505 41.01 32.505 40 32 C39.505 32.99 39.505 32.99 39 34 C38.67 33.67 38.34 33.34 38 33 C37.505 33.99 37.505 33.99 37 35 C37.99 35.33 38.98 35.66 40 36 C38 39 38 39 35 41 C35 40.34 35 39.68 35 39 C31.52176885 37.84058962 29.54104422 38.29179116 26 39 C26 37.35 26 35.7 26 34 C25.01 34.495 25.01 34.495 24 35 C24 33.02 24 31.04 24 29 C26.31 28.34 28.62 27.68 31 27 C31.99 27.99 32.98 28.98 34 30 C33.505 28.515 33.505 28.515 33 27 C33.99 26.34 34.98 25.68 36 25 C36.495 23.515 36.495 23.515 37 22 C36.01 21.67 35.02 21.34 34 21 C33.01 21.495 33.01 21.495 32 22 C31.505 23.485 31.505 23.485 31 25 C30.34 25 29.68 25 29 25 C29.70441393 21.8301373 30.45114742 18.86537728 32 16 C34.95950256 14.83177531 36.35596292 14.73890389 39.3125 15.9375 C39.869375 16.288125 40.42625 16.63875 41 17 C41.33 14.36 41.66 11.72 42 9 C43.65 8.67 45.3 8.34 47 8 C45.17251097 5.53686261 43.77023784 4.16571382 40.73046875 3.51171875 C38.48520654 3.27481707 36.25544422 3.09638651 34 3 C33.67 3.99 33.34 4.98 33 6 C32.01 5.34 31.02 4.68 30 4 C27.45770403 3.8287086 25.02810519 3.76757066 22.48828125 3.8046875 C21.39594429 3.80893234 21.39594429 3.80893234 20.28153992 3.81326294 C17.95835863 3.82444743 15.63556453 3.84954834 13.3125 3.875 C11.7363337 3.88503206 10.16016135 3.89415752 8.58398438 3.90234375 C4.72250733 3.92438104 0.86131929 3.95889859 -3 4 C-3 6.64 -3 9.28 -3 12 C-2.34 12 -1.68 12 -1 12 C-1 12.99 -1 13.98 -1 15 C-0.34 15 0.32 15 1 15 C1 15.66 1 16.32 1 17 C-0.65 17.33 -2.3 17.66 -4 18 C-4.33 17.34 -4.66 16.68 -5 16 C-4.34 16 -3.68 16 -3 16 C-3 15.34 -3 14.68 -3 14 C-3.99 14.33 -4.98 14.66 -6 15 C-7.04336284 11.60907078 -7.22584687 8.5382677 -7 5 C-5 2 -5 2 -2.375 1.3125 C-1.59125 1.209375 -0.8075 1.10625 0 1 C0 0.67 0 0.34 0 0 Z M-7 16 C-6.34 16.33 -5.68 16.66 -5 17 C-5 17.66 -5 18.32 -5 19 C-5.99 19.33 -6.98 19.66 -8 20 C-8 17 -8 17 -7 16 Z " fill="#F67923" transform="translate(590,383)"/>
<path d="M0 0 C0.66 0 1.32 0 2 0 C4.60646042 2.60646042 4.23778865 4.41673137 4.25224304 7.96612549 C4.24505753 8.78683533 4.23787201 9.60754517 4.23046875 10.453125 C4.23001053 11.30493347 4.22955231 12.15674194 4.2290802 13.03436279 C4.22605276 14.84681583 4.21815188 16.65926614 4.20581055 18.47167969 C4.1878469 21.19736359 4.18529899 23.92270128 4.18554688 26.6484375 C4.16495958 36.47769096 3.89069546 46.20542487 3 56 C2.01 56 1.02 56 0 56 C-0.33 56.99 -0.66 57.98 -1 59 C-1.99 58.34 -2.98 57.68 -4 57 C-4.33 57.99 -4.66 58.98 -5 60 C-6.32 60 -7.64 60 -9 60 C-9.33 60.99 -9.66 61.98 -10 63 C-9.34 63.33 -8.68 63.66 -8 64 C-8.66 65.32 -9.32 66.64 -10 68 C-11.485 67.505 -11.485 67.505 -13 67 C-13.33 68.65 -13.66 70.3 -14 72 C-14.391875 71.360625 -14.78375 70.72125 -15.1875 70.0625 C-17.40437933 67.53984421 -18.70199095 67.253693 -22 67 C-22.99 67.495 -22.99 67.495 -24 68 C-24 67.34 -24 66.68 -24 66 C-24.8971875 65.814375 -24.8971875 65.814375 -25.8125 65.625 C-28 65 -28 65 -31 63 C-31.40843923 60.28796348 -31.13336867 57.7562858 -31 55 C-30.34 55 -29.68 55 -29 55 C-28.67 53.68 -28.34 52.36 -28 51 C-26.35 51.33 -24.7 51.66 -23 52 C-23 53.98 -23 55.96 -23 58 C-22.01 58.33 -21.02 58.66 -20 59 C-20 58.34 -20 57.68 -20 57 C-19.34 57.33 -18.68 57.66 -18 58 C-18.33 58.66 -18.66 59.32 -19 60 C-17.515 59.505 -17.515 59.505 -16 59 C-16 57.68 -16 56.36 -16 55 C-16.66 55 -17.32 55 -18 55 C-19.625 53 -19.625 53 -21 51 C-20.34 51 -19.68 51 -19 51 C-18.5978125 49.9171875 -18.5978125 49.9171875 -18.1875 48.8125 C-17.01017502 46.02409874 -15.60854116 43.55904276 -14 41 C-12 44.75 -12 44.75 -12 47 C-11.34 47.33 -10.68 47.66 -10 48 C-10.33 49.32 -10.66 50.64 -11 52 C-5.98464948 51.67039784 -5.98464948 51.67039784 -2 49 C-1.34 49.33 -0.68 49.66 0 50 C-0.66 47.03 -1.32 44.06 -2 41 C-5.79557881 41 -7.62902617 41.50178941 -11 43 C-11.33 42.01 -11.66 41.02 -12 40 C-11.34 40 -10.68 40 -10 40 C-10 39.34 -10 38.68 -10 38 C-9.1646875 37.9071875 -9.1646875 37.9071875 -8.3125 37.8125 C-5.05012827 36.66626128 -3.31332126 34.50609803 -1 32 C-0.34 32.33 0.32 32.66 1 33 C0.67 30.36 0.34 27.72 0 25 C-1.32 25.33 -2.64 25.66 -4 26 C-4.66 24.02 -5.32 22.04 -6 20 C-2.25 17 -2.25 17 0 17 C0 19 0 19 -1.5 20.625 C-1.995 21.07875 -2.49 21.5325 -3 22 C-1.68 22 -0.36 22 1 22 C0.67 14.74 0.34 7.48 0 0 Z M-15 61 C-15.33 62.98 -15.66 64.96 -16 67 C-13.44496043 65.71711243 -13.44496043 65.71711243 -11 64 C-11 63.01 -11 62.02 -11 61 C-12.32 61 -13.64 61 -15 61 Z M-6 26 C-5.34 26 -4.68 26 -4 26 C-3.67 26.99 -3.34 27.98 -3 29 C-3.33 29.66 -3.66 30.32 -4 31 C-4.66 31 -5.32 31 -6 31 C-6 29.35 -6 27.7 -6 26 Z " fill="#DE472A" transform="translate(330,568)"/>
<path d="M0 0 C0.33 0 0.66 0 1 0 C1 20.79 1 41.58 1 63 C3.97 62.505 3.97 62.505 7 62 C7 61.34 7 60.68 7 60 C7.66 60.33 8.32 60.66 9 61 C8.34 61.99 7.68 62.98 7 64 C6.34 63.67 5.68 63.34 5 63 C5.144375 63.556875 5.28875 64.11375 5.4375 64.6875 C5.7159375 65.8321875 5.7159375 65.8321875 6 67 C6.309375 68.1446875 6.309375 68.1446875 6.625 69.3125 C7.09802676 72.70252511 6.59197478 75.64547623 6 79 C6.66 76.69 7.32 74.38 8 72 C8.804375 72.495 9.60875 72.99 10.4375 73.5 C12.64896185 75.08419653 12.64896185 75.08419653 14 75 C17.11342835 73.27942118 19.54815394 71.55400631 22 69 C26.35280899 64.98202247 26.35280899 64.98202247 29.25 65.0625 C31 66 31 66 32 69 C32.495 67.02 32.495 67.02 33 65 C33.99 65 34.98 65 36 65 C36 63.68 36 62.36 36 61 C36.2981424 59.65835921 36.62243192 58.32148827 37 57 C38.32 57.33 39.64 57.66 41 58 C41.33 56.35 41.66 54.7 42 53 C42.33 53.99 42.66 54.98 43 56 C43.66 56 44.32 56 45 56 C45 55.01 45 54.02 45 53 C46.32 53.33 47.64 53.66 49 54 C49 49.38 49 44.76 49 40 C49.33 40 49.66 40 50 40 C50 51.55 50 63.1 50 75 C49.67 75 49.34 75 49 75 C48.67 70.38 48.34 65.76 48 61 C46.02 61.495 46.02 61.495 44 62 C44 61.34 44 60.68 44 60 C45.98 59.505 45.98 59.505 48 59 C46.93354885 57.70366379 46.93354885 57.70366379 44.4375 57.9375 C43.633125 57.958125 42.82875 57.97875 42 58 C41.814375 59.2065625 41.814375 59.2065625 41.625 60.4375 C41.41875 61.283125 41.2125 62.12875 41 63 C40.01 63.495 40.01 63.495 39 64 C39.495 67.465 39.495 67.465 40 71 C39.34 71 38.68 71 38 71 C37.9071875 71.86625 37.9071875 71.86625 37.8125 72.75 C36.67972699 75.88690987 34.65802405 77.09167504 32 79 C31.505 78.505 31.505 78.505 31 78 C29.515 77.505 29.515 77.505 28 77 C28.99 76.505 28.99 76.505 30 76 C28.515 75.505 28.515 75.505 27 75 C27 74.34 27 73.68 27 73 C26.34 73 25.68 73 25 73 C25.33 74.98 25.66 76.96 26 79 C22.535 79.99 22.535 79.99 19 81 C19 80.34 19 79.68 19 79 C17.35 79 15.7 79 14 79 C14 79.66 14 80.32 14 81 C13.34 81 12.68 81 12 81 C11.67 80.34 11.34 79.68 11 79 C9.515 79.495 9.515 79.495 8 80 C7.67 81.65 7.34 83.3 7 85 C5.68 85 4.36 85 3 85 C3 83 3 83 5 81 C4.34 81 3.68 81 3 81 C2.90234375 74.84765625 2.90234375 74.84765625 3 73 C3.495 72.505 3.495 72.505 4 72 C3.34 71.67 2.68 71.34 2 71 C1.505 71.99 1.505 71.99 1 73 C-0.46041228 70.07917545 -0.11928796 67.51698631 -0.11352539 64.25537109 C-0.11367142 63.56257553 -0.11381744 62.86977997 -0.1139679 62.1559906 C-0.11327018 59.86177459 -0.10548442 57.56763936 -0.09765625 55.2734375 C-0.09579157 53.68445887 -0.0943679 52.09547966 -0.09336853 50.50650024 C-0.08954731 46.32090675 -0.07972039 42.13534787 -0.06866455 37.94976807 C-0.05844194 33.68005847 -0.05386909 29.4103433 -0.04882812 25.140625 C-0.03809778 16.76040077 -0.02102608 8.38020469 0 0 Z M31 59 C32.32 59 33.64 59 35 59 C34.75 60.875 34.75 60.875 34 63 C31.9375 64.25 31.9375 64.25 30 65 C30.33 63.02 30.66 61.04 31 59 Z " fill="#DA3F26" transform="translate(284,570)"/>
<path d="M0 0 C0.99 0 1.98 0 3 0 C3 0.66 3 1.32 3 2 C4.65 2 6.3 2 8 2 C8.33 2.66 8.66 3.32 9 4 C11.3140622 4.73075648 13.64828869 5.40138258 16 6 C16.33 5.01 16.66 4.02 17 3 C18.65 3 20.3 3 22 3 C23.60339848 6.11771927 24.18974141 7.39011689 23.125 10.8125 C22.75375 11.534375 22.3825 12.25625 22 13 C21.67 12.34 21.34 11.68 21 11 C20.1028125 11.3403125 20.1028125 11.3403125 19.1875 11.6875 C18.465625 11.790625 17.74375 11.89375 17 12 C15.25 10.5625 15.25 10.5625 14 9 C13.34 10.65 12.68 12.3 12 14 C11.236875 13.62875 10.47375 13.2575 9.6875 12.875 C8.800625 12.58625 7.91375 12.2975 7 12 C6.01 12.66 5.02 13.32 4 14 C3.34 13.34 2.68 12.68 2 12 C1.01 12.495 1.01 12.495 0 13 C0.66 10.36 1.32 7.72 2 5 C1.34 5 0.68 5 0 5 C-0.5625 3.0625 -0.5625 3.0625 -1 1 C-0.67 0.67 -0.34 0.34 0 0 Z " fill="#F57920" transform="translate(587,417)"/>
<path d="M0 0 C0.99 0.33 1.98 0.66 3 1 C2.67 2.65 2.34 4.3 2 6 C5.41084952 8.09898432 8.03650664 8.25298894 12 8 C12.99 7.67 13.98 7.34 15 7 C15 7.66 15 8.32 15 9 C15.66 9.33 16.32 9.66 17 10 C17 10.99 17 11.98 17 13 C15 14.6875 15 14.6875 13 16 C11.75453595 13.50907189 12.2232422 12.58919267 13 10 C9.43013027 11.38424911 9.43013027 11.38424911 6.0625 13.1875 C3.15353966 14.33345407 0.98979875 13.67949972 -2 13 C-2 12.34 -2 11.68 -2 11 C-3.134375 10.87625 -4.26875 10.7525 -5.4375 10.625 C-7.2009375 10.315625 -7.2009375 10.315625 -9 10 C-9.33 9.34 -9.66 8.68 -10 8 C-9.360625 7.21625 -8.72125 6.4325 -8.0625 5.625 C-6.01857687 3.20460719 -6.01857687 3.20460719 -5 1 C-4.01 1.33 -3.02 1.66 -2 2 C-1.34 1.34 -0.68 0.68 0 0 Z " fill="#EA5D24" transform="translate(489,581)"/>
<path d="M0 0 C1.97190415 2.95785622 2.74649956 5.1866893 3.75 8.5625 C5.6997954 14.62606827 8.48925681 19.71048027 12 25 C12.66 23.02 13.32 21.04 14 19 C14.66 19 15.32 19 16 19 C16 18.01 16 17.02 16 16 C16.99 16 17.98 16 19 16 C19.33 17.65 19.66 19.3 20 21 C21.32 20.34 22.64 19.68 24 19 C24 19.99 24 20.98 24 22 C23.34 22.33 22.68 22.66 22 23 C21.67 23.99 21.34 24.98 21 26 C20.34 26 19.68 26 19 26 C18.71125 25.360625 18.4225 24.72125 18.125 24.0625 C17.17176549 21.84793921 17.17176549 21.84793921 15 21 C15 21.66 15 22.32 15 23 C15.66 23 16.32 23 17 23 C17.33 24.32 17.66 25.64 18 27 C17.01 27.66 16.02 28.32 15 29 C21.68523958 36.5066342 29.89702733 41.8175531 39 46 C36 47 36 47 33.72265625 46.171875 C18.04864572 37.79398978 6.57422592 25.02587832 1 8 C0.43467624 5.27807076 0.16056608 2.78314533 0 0 Z " fill="#D32B18" transform="translate(287,672)"/>
<path d="M0 0 C0.99 0 1.98 0 3 0 C3 0.66 3 1.32 3 2 C3.99 1.67 4.98 1.34 6 1 C6 1.66 6 2.32 6 3 C4.02 3.99 4.02 3.99 2 5 C2.433125 5.83144531 2.433125 5.83144531 2.875 6.6796875 C3.431875 7.76636719 3.431875 7.76636719 4 8.875 C4.37125 9.59429687 4.7425 10.31359375 5.125 11.0546875 C6 13 6 13 6 15 C6.66 15 7.32 15 8 15 C7.67 16.32 7.34 17.64 7 19 C4.33333333 19 1.66666667 19 -1 19 C-0.34 17.68 0.32 16.36 1 15 C0.01 15.66 -0.98 16.32 -2 17 C-2.103125 16.360625 -2.20625 15.72125 -2.3125 15.0625 C-2.539375 14.381875 -2.76625 13.70125 -3 13 C-3.99 12.67 -4.98 12.34 -6 12 C-6.94921875 9.93359375 -6.94921875 9.93359375 -7.6875 7.4375 C-7.93886719 6.61121094 -8.19023438 5.78492188 -8.44921875 4.93359375 C-8.63097656 4.29550781 -8.81273437 3.65742188 -9 3 C-7 3 -5 3 -3 3 C-2.01 2.67 -1.02 2.34 0 2 C0 1.34 0 0.68 0 0 Z " fill="#F54D20" transform="translate(674,311)"/>
<path d="M0 0 C0.33 0 0.66 0 1 0 C1 20.79 1 41.58 1 63 C3.97 62.505 3.97 62.505 7 62 C7 61.34 7 60.68 7 60 C7.66 60.33 8.32 60.66 9 61 C8.34 61.99 7.68 62.98 7 64 C6.34 63.67 5.68 63.34 5 63 C5.144375 63.556875 5.28875 64.11375 5.4375 64.6875 C5.7159375 65.8321875 5.7159375 65.8321875 6 67 C6.20625 67.804375 6.4125 68.60875 6.625 69.4375 C7.0362401 72.24764069 6.58019438 74.24407668 6 77 C6.33 77.99 6.66 78.98 7 80 C5.02 80.495 5.02 80.495 3 81 C2.90234375 74.84765625 2.90234375 74.84765625 3 73 C3.495 72.505 3.495 72.505 4 72 C3.34 71.67 2.68 71.34 2 71 C1.505 71.99 1.505 71.99 1 73 C-0.46041228 70.07917545 -0.11928796 67.51698631 -0.11352539 64.25537109 C-0.11367142 63.56257553 -0.11381744 62.86977997 -0.1139679 62.1559906 C-0.11327018 59.86177459 -0.10548442 57.56763936 -0.09765625 55.2734375 C-0.09579157 53.68445887 -0.0943679 52.09547966 -0.09336853 50.50650024 C-0.08954731 46.32090675 -0.07972039 42.13534787 -0.06866455 37.94976807 C-0.05844194 33.68005847 -0.05386909 29.4103433 -0.04882812 25.140625 C-0.03809778 16.76040077 -0.02102608 8.38020469 0 0 Z " fill="#D62613" transform="translate(284,570)"/>
<path d="M0 0 C0.99 0.33 1.98 0.66 3 1 C2.67 2.32 2.34 3.64 2 5 C3.11375 4.95875 4.2275 4.9175 5.375 4.875 C9 5 9 5 11 7 C7.87992927 8.56003536 4.56451251 8.1419522 1.140625 8.1328125 C0.35862732 8.13376923 -0.42337036 8.13472595 -1.22906494 8.13571167 C-2.88676026 8.1363929 -4.54445823 8.13454259 -6.20214844 8.13037109 C-8.72597348 8.12505065 -11.24961822 8.1303031 -13.7734375 8.13671875 C-15.38541706 8.1360574 -16.9973965 8.13477505 -18.609375 8.1328125 C-19.35958923 8.13483673 -20.10980347 8.13686096 -20.88275146 8.13894653 C-25.02653275 8.12064847 -28.93476582 7.80743409 -33 7 C-33 6.67 -33 6.34 -33 6 C-23.6587308 5.38673965 -14.36749815 4.8179104 -5 5 C-5 4.01 -5 3.02 -5 2 C-4.360625 1.855625 -3.72125 1.71125 -3.0625 1.5625 C-1.02454854 1.18992819 -1.02454854 1.18992819 0 0 Z " fill="#F2862B" transform="translate(668,717)"/>
<path d="M0 0 C0.33 0 0.66 0 1 0 C1.04949353 4.91128067 1.08576382 9.82241566 1.10986328 14.73388672 C1.1199115 16.40415985 1.13355236 18.07441542 1.15087891 19.74462891 C1.17517926 22.14750504 1.18649487 24.55014827 1.1953125 26.953125 C1.20563507 27.69806213 1.21595764 28.44299927 1.22659302 29.21051025 C1.22740368 32.96927642 1.10367118 35.81173711 -1 39 C-1.33 38.34 -1.66 37.68 -2 37 C-3.65 38.98 -5.3 40.96 -7 43 C-8.65 41.35 -10.3 39.7 -12 38 C-11.23883449 36.84772177 -10.46567307 35.7033614 -9.6875 34.5625 C-9.25824219 33.92441406 -8.82898438 33.28632813 -8.38671875 32.62890625 C-7 31 -7 31 -4 30 C-3.01 30.33 -2.02 30.66 -1 31 C-0.67 20.77 -0.34 10.54 0 0 Z " fill="#DD3D1F" transform="translate(332,425)"/>
<path d="M0 0 C4.58574001 -0.07530902 9.17110418 -0.12913594 13.75732422 -0.16479492 C15.31077358 -0.17969189 16.86418235 -0.20001651 18.41748047 -0.22631836 C28.56773568 -0.39363026 38.22443156 -0.14143383 48 3 C48.66 3.66 49.32 4.32 50 5 C43.33333333 5 36.66666667 5 30 5 C29.01 6.485 29.01 6.485 28 8 C25.875 8.6875 25.875 8.6875 24 9 C24.185625 8.05125 24.37125 7.1025 24.5625 6.125 C25.28686632 3.10131207 25.28686632 3.10131207 24 1 C16.08 1 8.16 1 0 1 C0 0.67 0 0.34 0 0 Z " fill="#F42910" transform="translate(645,299)"/>
<path d="M0 0 C0 11.22 0 22.44 0 34 C-0.33 34 -0.66 34 -1 34 C-1 23.44 -1 12.88 -1 2 C-1.94137255 4.82411765 -2.11725382 6.52918032 -2.09765625 9.44921875 C-2.09443359 10.29677734 -2.09121094 11.14433594 -2.08789062 12.01757812 C-2.07951172 12.89865234 -2.07113281 13.77972656 -2.0625 14.6875 C-2.05798828 15.58017578 -2.05347656 16.47285156 -2.04882812 17.39257812 C-2.03704983 19.59511987 -2.02060164 21.79752599 -2 24 C-3.65 24.33 -5.3 24.66 -7 25 C-6.34 23.68 -5.68 22.36 -5 21 C-4.34 21 -3.68 21 -3 21 C-3.680625 20.29875 -4.36125 19.5975 -5.0625 18.875 C-7 16 -7 16 -6.8125 12.75 C-6 10 -6 10 -5 9 C-5.1018371 7.08575543 -5.1018371 7.08575543 -5.4375 4.9375 C-5.623125 3.638125 -5.80875 2.33875 -6 1 C-3 0 -3 0 0 0 Z " fill="#DA361C" transform="translate(333,566)"/>
<path d="M0 0 C0.33 0 0.66 0 1 0 C1 15.51 1 31.02 1 47 C-1.39763185 44.60236815 -1.34280586 43.66726502 -1.625 40.375 C-1.69976562 39.55773437 -1.77453125 38.74046875 -1.8515625 37.8984375 C-1.90054687 37.27195312 -1.94953125 36.64546875 -2 36 C-2.66 36 -3.32 36 -4 36 C-4 36.66 -4 37.32 -4 38 C-3.34 38.33 -2.68 38.66 -2 39 C-2.66 40.32 -3.32 41.64 -4 43 C-4 42.34 -4 41.68 -4 41 C-4.99 40.67 -5.98 40.34 -7 40 C-6.34 40 -5.68 40 -5 40 C-5 39.34 -5 38.68 -5 38 C-5.66 38 -6.32 38 -7 38 C-6.505 35.03 -6.505 35.03 -6 32 C-4.35 31.67 -2.7 31.34 -1 31 C-0.67 20.77 -0.34 10.54 0 0 Z " fill="#DB3418" transform="translate(333,377)"/>
<path d="M0 0 C0.33 0 0.66 0 1 0 C1 11.55 1 23.1 1 35 C0.67 35 0.34 35 0 35 C-0.33 30.38 -0.66 25.76 -1 21 C-2.32 21.33 -3.64 21.66 -5 22 C-5 21.34 -5 20.68 -5 20 C-3.68 19.67 -2.36 19.34 -1 19 C-2.06645115 17.70366379 -2.06645115 17.70366379 -4.5625 17.9375 C-5.366875 17.958125 -6.17125 17.97875 -7 18 C-7.0825 18.78375 -7.165 19.5675 -7.25 20.375 C-8 23 -8 23 -10.0625 24.3125 C-10.701875 24.539375 -11.34125 24.76625 -12 25 C-12.33 22.36 -12.66 19.72 -13 17 C-11.35 17.33 -9.7 17.66 -8 18 C-7.67 16.35 -7.34 14.7 -7 13 C-6.67 13.99 -6.34 14.98 -6 16 C-5.34 16 -4.68 16 -4 16 C-4 15.01 -4 14.02 -4 13 C-2.68 13.33 -1.36 13.66 0 14 C0 9.38 0 4.76 0 0 Z " fill="#D72D18" transform="translate(333,610)"/>
<path d="M0 0 C3.96 0.99 3.96 0.99 8 2 C7.71125 2.57492187 7.4225 3.14984375 7.125 3.7421875 C3.62565922 10.76517004 1.23585543 17.21085855 0 25 C-0.33 25 -0.66 25 -1 25 C-1.07428994 21.35979274 -1.00554684 18.03161699 -0.375 14.4375 C0.03902023 10.64231456 -0.64090814 8.51764952 -2 5 C-2 4.01 -2 3.02 -2 2 C-1.34 2 -0.68 2 0 2 C0 1.34 0 0.68 0 0 Z " fill="#DE4224" transform="translate(335,351)"/>
<path d="M0 0 C0.66 0 1.32 0 2 0 C2.33 0.66 2.66 1.32 3 2 C3.99 2.33 4.98 2.66 6 3 C6 2.34 6 1.68 6 1 C8.66666667 1 11.33333333 1 14 1 C14 3.31 14 5.62 14 8 C13.67 8 13.34 8 13 8 C13 6.35 13 4.7 13 3 C12.01 3 11.02 3 10 3 C10 3.66 10 4.32 10 5 C10.66 5 11.32 5 12 5 C12 5.66 12 6.32 12 7 C11.28972656 6.9278125 10.57945312 6.855625 9.84765625 6.78125 C8.92855469 6.6884375 8.00945312 6.595625 7.0625 6.5 C6.14597656 6.4071875 5.22945313 6.314375 4.28515625 6.21875 C2.64507518 6.05708522 2.64507518 6.05708522 1 6 C1 6.66 1 7.32 1 8 C-3.455 9.485 -3.455 9.485 -8 11 C-7.34 8.69 -6.68 6.38 -6 4 C-5.34 4 -4.68 4 -4 4 C-3.34 4.66 -2.68 5.32 -2 6 C-0.42726432 3.1575146 -0.42726432 3.1575146 0 0 Z " fill="#D83922" transform="translate(321,647)"/>
<path d="M0 0 C0.33 0.66 0.66 1.32 1 2 C0.4225 2.40992188 -0.155 2.81984375 -0.75 3.2421875 C-1.4925 3.78101563 -2.235 4.31984375 -3 4.875 C-4.11375 5.67550781 -4.11375 5.67550781 -5.25 6.4921875 C-6.11625 7.23855469 -6.11625 7.23855469 -7 8 C-7 8.66 -7 9.32 -7 10 C-5.68 9.67 -4.36 9.34 -3 9 C-3.17625835 11.37948772 -3.69719773 12.70225849 -5.40234375 14.37890625 C-6.90649092 15.62115486 -8.45129851 16.81376056 -10 18 C-10.33 17.34 -10.66 16.68 -11 16 C-11.99 16 -12.98 16 -14 16 C-14.66 17.98 -15.32 19.96 -16 22 C-17 19 -17 19 -16.1015625 16.80078125 C-12.10549821 10.06667291 -7.17232383 3.58616191 0 0 Z " fill="#F46516" transform="translate(581,385)"/>
<path d="M0 0 C0.33 0 0.66 0 1 0 C1.16723026 5.25087844 1.32782815 10.50190094 1.48217773 15.75317383 C1.53567402 17.54099032 1.59100904 19.32875275 1.64819336 21.11645508 C1.72989235 23.68038266 1.80505945 26.24442953 1.87890625 28.80859375 C1.90594131 29.6127623 1.93297638 30.41693085 1.96083069 31.24546814 C2.01285627 33.16298422 2.01187441 35.08181503 2 37 C1 38 1 38 -1.13305664 38.11352539 C-2.50772095 38.10567017 -2.50772095 38.10567017 -3.91015625 38.09765625 C-4.89951172 38.09443359 -5.88886719 38.09121094 -6.90820312 38.08789062 C-7.94912109 38.07951172 -8.99003906 38.07113281 -10.0625 38.0625 C-11.10728516 38.05798828 -12.15207031 38.05347656 -13.22851562 38.04882812 C-15.8190666 38.03699913 -18.40950559 38.02051689 -21 38 C-18 36 -18 36 0 36 C0 24.12 0 12.24 0 0 Z " fill="#F7CEBD" transform="translate(395,304)"/>
<path d="M0 0 C0.33 0 0.66 0 1 0 C1 2.31 1 4.62 1 7 C3.47266765 6.65555119 3.47266765 6.65555119 6 6 C6.33 5.34 6.66 4.68 7 4 C7.66 4 8.32 4 9 4 C9 5.32 9 6.64 9 8 C9.66 8.66 10.32 9.32 11 10 C9.68 10.33 8.36 10.66 7 11 C6.67 10.34 6.34 9.68 6 9 C5.78918149 12.89459074 5.78918149 12.89459074 7 16 C5.02 17.65 3.04 19.3 1 21 C0.21311555 18.22276075 -0.11949924 15.77389923 -0.09765625 12.890625 C-0.09443359 12.13652344 -0.09121094 11.38242187 -0.08789062 10.60546875 C-0.07951172 9.82816406 -0.07113281 9.05085937 -0.0625 8.25 C-0.05798828 7.45722656 -0.05347656 6.66445313 -0.04882812 5.84765625 C-0.03708565 3.89840492 -0.01915146 1.94919262 0 0 Z " fill="#D7311C" transform="translate(285,650)"/>
<path d="M0 0 C0.99 0.33 1.98 0.66 3 1 C3 1.66 3 2.32 3 3 C7.95 2.67 12.9 2.34 18 2 C10.80154853 6.79896765 -0.59836746 5.63408547 -9 5 C-12.31143849 4.29942507 -14.89777483 3.37876674 -18 2 C-14.32192463 0.77397488 -12.11756073 1.29704423 -8.3125 1.9375 C-7.13300781 2.13214844 -5.95351563 2.32679688 -4.73828125 2.52734375 C-3.38283203 2.76130859 -3.38283203 2.76130859 -2 3 C-1.67 2.34 -1.34 1.68 -1 1 C-0.67 0.67 -0.34 0.34 0 0 Z " fill="#EA5316" transform="translate(510,648)"/>
<path d="M0 0 C2.97 1.98 2.97 1.98 6 4 C6.33 3.01 6.66 2.02 7 1 C9.86724686 1.57344937 10.8614515 1.8614515 13 4 C12.625 6.625 12.625 6.625 12 9 C13.32 9.66 14.64 10.32 16 11 C15.01 11.33 14.02 11.66 13 12 C10.625 10.671875 10.625 10.671875 8 8.75 C7.13375 8.12609375 6.2675 7.5021875 5.375 6.859375 C3.41206642 5.32260463 1.61708347 3.89368985 0 2 C0 1.34 0 0.68 0 0 Z M13 2 C13.66 2 14.32 2 15 2 C15 2.66 15 3.32 15 4 C14.34 4 13.68 4 13 4 C13 3.34 13 2.68 13 2 Z " fill="#E8531C" transform="translate(475,637)"/>
<path d="M0 0 C1.98 0 3.96 0 6 0 C6.66 1.65 7.32 3.3 8 5 C7.34 5 6.68 5 6 5 C5.67 6.32 5.34 7.64 5 9 C4.34 9 3.68 9 3 9 C3 8.34 3 7.68 3 7 C2.01 7.495 2.01 7.495 1 8 C1.66 10.97 2.32 13.94 3 17 C0.65085508 14.65085508 0.26859643 13.04320554 -0.625 9.875 C-0.88539063 8.96492187 -1.14578125 8.05484375 -1.4140625 7.1171875 C-1.60742188 6.41851563 -1.80078125 5.71984375 -2 5 C-1.34 5 -0.68 5 0 5 C0 3.35 0 1.7 0 0 Z " fill="#E5481D" transform="translate(453,579)"/>
<path d="M0 0 C3 1.5 3 1.5 6 3 C6.33 2.01 6.66 1.02 7 0 C7 7 7 7 6 10 C4.35 10.33 2.7 10.66 1 11 C-1.35448165 8.44931155 -1.98327924 7.28982642 -2.1875 3.75 C-2.125625 2.8425 -2.06375 1.935 -2 1 C-1.34 0.67 -0.68 0.34 0 0 Z " fill="#E04526" transform="translate(422,496)"/>
<path d="M0 0 C6.37775892 2.56822507 10.85637552 9.54476195 14.0625 15.4375 C15 18 15 18 14 21 C13.01 19.35 12.02 17.7 11 16 C10.67 17.32 10.34 18.64 10 20 C6.06153846 15.69230769 6.06153846 15.69230769 5.75 12.1875 C5.8325 11.465625 5.915 10.74375 6 10 C6.66 10 7.32 10 8 10 C7.04578192 8.85073734 6.08647955 7.70569459 5.125 6.5625 C4.59132813 5.92441406 4.05765625 5.28632812 3.5078125 4.62890625 C2.0777243 2.89194996 2.0777243 2.89194996 0 2 C0 1.34 0 0.68 0 0 Z " fill="#DB371E" transform="translate(313,527)"/>
<path d="M0 0 C0.99 0 1.98 0 3 0 C3.66 0.66 4.32 1.32 5 2 C5.99 1.34 6.98 0.68 8 0 C8.33 0.66 8.66 1.32 9 2 C9.99 2.33 10.98 2.66 12 3 C10.60755361 5.78489278 8.44008012 7.12301529 6 9 C5.01 8.01 4.02 7.02 3 6 C2.01 6.495 2.01 6.495 1 7 C1 6.01 1 5.02 1 4 C0.34 3.34 -0.32 2.68 -1 2 C-0.67 1.34 -0.34 0.68 0 0 Z " fill="#F47A20" transform="translate(587,458)"/>
<path d="M0 0 C0.33 0 0.66 0 1 0 C0.79372191 11.9641295 -5.57972743 22.75888216 -14 31 C-14.66 30.67 -15.32 30.34 -16 30 C-14.63458944 28.10359644 -13.268854 26.27735226 -11.640625 24.59765625 C-5.20487649 17.81358115 -2.23708 8.94831998 0 0 Z " fill="#DB2F16" transform="translate(330,465)"/>
<path d="M0 0 C3.0210714 2.0140476 4.60667426 3.63279613 6 7 C3.8125 8.125 3.8125 8.125 1 9 C-1.6875 8.125 -1.6875 8.125 -4 7 C-4.66 7 -5.32 7 -6 7 C-5.34 5.68 -4.68 4.36 -4 3 C-3.01 3 -2.02 3 -1 3 C-0.67 2.01 -0.34 1.02 0 0 Z " fill="#E95424" transform="translate(482,542)"/>
<path d="M0 0 C0.51949219 0.39832031 1.03898438 0.79664063 1.57421875 1.20703125 C5.27926842 4.02177323 8.93575065 6.71385974 13 9 C12.01 9.495 12.01 9.495 11 10 C8.03 8.02 5.06 6.04 2 4 C2.33 4.99 2.66 5.98 3 7 C0.03 7 -2.94 7 -6 7 C-6 6.34 -6 5.68 -6 5 C-5.01 4.67 -4.02 4.34 -3 4 C-2.67 3.01 -2.34 2.02 -2 1 C-1.34 0.67 -0.68 0.34 0 0 Z " fill="#F96F15" transform="translate(749,478)"/>
<path d="M0 0 C2.27734375 -0.328125 2.27734375 -0.328125 4.9375 -0.25 C6.25041016 -0.22679687 6.25041016 -0.22679687 7.58984375 -0.203125 C10 0 10 0 13 1 C12.34 2.65 11.68 4.3 11 6 C10.34 5.67 9.68 5.34 9 5 C6.88316159 5.89163577 6.88316159 5.89163577 5 7 C4.67 6.01 4.34 5.02 4 4 C1.03 3.505 1.03 3.505 -2 3 C-1.34 2.01 -0.68 1.02 0 0 Z " fill="#F5532C" transform="translate(635,299)"/>
<path d="M0 0 C2 1 2 1 4 4 C4.66 3.01 5.32 2.02 6 1 C8 1 8 1 10.125 2.8125 C12 5 12 5 12 8 C9.23723823 7.47731534 6.6739124 6.89130413 4 6 C4.33 7.98 4.66 9.96 5 12 C1.66226291 8.35883227 1.02135098 4.71392758 0 0 Z " fill="#DC341B" transform="translate(416,491)"/>
<path d="M0 0 C3.05383204 1.52691602 3.38086503 3.95216256 4.625 7.0625 C5.07101562 8.16722656 5.51703125 9.27195312 5.9765625 10.41015625 C6.31429688 11.26480469 6.65203125 12.11945313 7 13 C7.99 13 8.98 13 10 13 C9.67 16.3 9.34 19.6 9 23 C6.6930891 19.92411879 5.57503763 18.35998869 4.39453125 14.9609375 C4.13349609 14.21585937 3.87246094 13.47078125 3.60351562 12.703125 C3.34248047 11.93484375 3.08144531 11.1665625 2.8125 10.375 C2.53986328 9.59898437 2.26722656 8.82296875 1.98632812 8.0234375 C0 2.28847509 0 2.28847509 0 0 Z " fill="#D82D15" transform="translate(401,451)"/>
<path d="M0 0 C1.31600093 3.94800278 0.07613159 6.39940306 -1.3125 10.125 C-1.53873047 10.77082031 -1.76496094 11.41664063 -1.99804688 12.08203125 C-3.73948991 16.86974496 -3.73948991 16.86974496 -6 18 C-5.25749403 13.91621717 -4.17076699 9.98060777 -3 6 C-3.99 6 -4.98 6 -6 6 C-5.67 4.68 -5.34 3.36 -5 2 C-3.68 2 -2.36 2 -1 2 C-0.67 1.34 -0.34 0.68 0 0 Z " fill="#F66B16" transform="translate(630,431)"/>
<path d="M0 0 C2.67868487 1.33934244 2.74954078 2.51692397 3.6875 5.3125 C3.95949219 6.09238281 4.23148437 6.87226563 4.51171875 7.67578125 C5.03839183 10.18274511 4.8178554 11.60132343 4 14 C3.67 12.35 3.34 10.7 3 9 C1.824375 8.7834375 1.824375 8.7834375 0.625 8.5625 C-2 8 -2 8 -4 7 C-3.625 5.0625 -3.625 5.0625 -3 3 C-2.34 2.67 -1.68 2.34 -1 2 C-0.67 2.33 -0.34 2.66 0 3 C0 2.01 0 1.02 0 0 Z " fill="#E84419" transform="translate(483,475)"/>
<path d="M0 0 C1.258125 0.33 2.51625 0.66 3.8125 1 C6.38987302 1.67603227 8.30212925 2 11 2 C11.33 1.34 11.66 0.68 12 0 C12.93423645 3.01031744 13.04449911 3.86650268 12 7 C12.87483915 9.16715557 12.87483915 9.16715557 14 11 C13.49210938 10.61328125 12.98421875 10.2265625 12.4609375 9.828125 C9.19408332 7.3565724 5.93836498 4.91667921 2.5 2.6875 C1.675 2.130625 0.85 1.57375 0 1 C0 0.67 0 0.34 0 0 Z " fill="#F53C12" transform="translate(668,343)"/>
<path d="M0 0 C1.71794149 3.43588299 0.21761228 7.06426718 -0.625 10.6875 C-1.20783647 13.14983559 -1.20783647 13.14983559 0 16 C-1.65 16 -3.3 16 -5 16 C-4.49228528 10.03435204 -2.61407872 5.36190101 0 0 Z " fill="#F26016" transform="translate(544,464)"/>
<path d="M0 0 C0.33 0 0.66 0 1 0 C1 7.26 1 14.52 1 22 C0.67 22 0.34 22 0 22 C-0.07347656 20.93458984 -0.07347656 20.93458984 -0.1484375 19.84765625 C-0.26058594 18.46900391 -0.26058594 18.46900391 -0.375 17.0625 C-0.44460938 16.14597656 -0.51421875 15.22945313 -0.5859375 14.28515625 C-0.79089844 13.15400391 -0.79089844 13.15400391 -1 12 C-1.66 11.67 -2.32 11.34 -3 11 C-2.69078116 9.54096742 -2.37751201 8.08279278 -2.0625 6.625 C-1.88847656 5.81289063 -1.71445312 5.00078125 -1.53515625 4.1640625 C-1 2 -1 2 0 0 Z " fill="#FA7721" transform="translate(737,433)"/>
<path d="M0 0 C3.14128754 1.57064377 3.57809687 4.66761078 4.6875 7.8125 C4.92533203 8.44220703 5.16316406 9.07191406 5.40820312 9.72070312 C6.63142274 13.13926116 7.43004376 15.55922805 6 19 C6 18.34 6 17.68 6 17 C5.34 17 4.68 17 4 17 C2.18959693 13.01711324 1.54102498 9.32819987 1 5 C0.68033861 3.33065717 0.35268934 1.6626783 0 0 Z " fill="#EA4916" transform="translate(495,510)"/>
<path d="M0 0 C1.15722845 3.47168534 0.49482689 5.16062695 -0.453125 8.59375 C-1.45434024 12.99909706 -1.68577458 17.50161503 -2 22 C-2.66 21.67 -3.32 21.34 -4 21 C-3.85816304 19.24967156 -3.71136571 17.49974466 -3.5625 15.75 C-3.48128906 14.77546875 -3.40007813 13.8009375 -3.31640625 12.796875 C-3.04925416 10.43538247 -2.64628032 8.28098935 -2 6 C-2.66 6 -3.32 6 -4 6 C-4 5.34 -4 4.68 -4 4 C-3.01 4 -2.02 4 -1 4 C-0.67 2.68 -0.34 1.36 0 0 Z " fill="#FB700B" transform="translate(742,556)"/>
<path d="M0 0 C0.99 0 1.98 0 3 0 C3 0.66 3 1.32 3 2 C3.99 2 4.98 2 6 2 C6 1.34 6 0.68 6 0 C6.66 0.33 7.32 0.66 8 1 C7.67 1.66 7.34 2.32 7 3 C7.66 3.33 8.32 3.66 9 4 C7.35 5.32 5.7 6.64 4 8 C3.67 7.01 3.34 6.02 3 5 C2.01 4.67 1.02 4.34 0 4 C0 2.68 0 1.36 0 0 Z " fill="#F7761E" transform="translate(699,480)"/>
<path d="M0 0 C0.99 0 1.98 0 3 0 C3 0.66 3 1.32 3 2 C3.66 2.33 4.32 2.66 5 3 C4.34 3 3.68 3 3 3 C2.67 4.32 2.34 5.64 2 7 C1.01 7 0.02 7 -1 7 C-0.67 8.65 -0.34 10.3 0 12 C-2.35953094 9.64046906 -2.49141413 8.22104383 -3 5 C-2.01 4.34 -1.02 3.68 0 3 C0 2.01 0 1.02 0 0 Z " fill="#DF3B1C" transform="translate(436,531)"/>
<path d="M0 0 C0.66 0.33 1.32 0.66 2 1 C-0.75 6.875 -0.75 6.875 -3 8 C-3 7.34 -3 6.68 -3 6 C-5.97 8.475 -5.97 8.475 -9 11 C-9.66 10.67 -10.32 10.34 -11 10 C-9.73232923 8.70522938 -8.46073776 7.41429661 -7.1875 6.125 C-6.47980469 5.40570313 -5.77210938 4.68640625 -5.04296875 3.9453125 C-3 2 -3 2 0 0 Z " fill="#DD3B1C" transform="translate(312,311)"/>
<path d="M0 0 C9.61538462 9.23076923 9.61538462 9.23076923 12 14 C9.47509209 12.91789661 7.96453963 11.96225186 6.0625 9.9375 C3.69160532 7.71029591 2.18335068 7.35370563 -1 7 C-0.67 6.01 -0.34 5.02 0 4 C0 3.34 0 2.68 0 2 C0 1.34 0 0.68 0 0 Z " fill="#D42714" transform="translate(337,662)"/>
<path d="M0 0 C1.32 0.33 2.64 0.66 4 1 C4 3.31 4 5.62 4 8 C3.01 8.33 2.02 8.66 1 9 C1 8.01 1 7.02 1 6 C-0.32 5.34 -1.64 4.68 -3 4 C-2.01 2.68 -1.02 1.36 0 0 Z " fill="#F27C24" transform="translate(579,556)"/>
<path d="M0 0 C0.66 0 1.32 0 2 0 C2.33 1.65 2.66 3.3 3 5 C4.98 4.34 6.96 3.68 9 3 C6.24479785 5.95929119 3.53372712 8.03681826 0 10 C0 9.01 0 8.02 0 7 C-0.66 6.34 -1.32 5.68 -2 5 C-1.34 3.35 -0.68 1.7 0 0 Z " fill="#DD4022" transform="translate(344,342)"/>
<path d="M0 0 C0.66 0.33 1.32 0.66 2 1 C-2.58921384 4.15654048 -6.29370646 6.57202798 -12 7 C-11.34 6.67 -10.68 6.34 -10 6 C-10 5.01 -10 4.02 -10 3 C-9.04287109 2.80083984 -9.04287109 2.80083984 -8.06640625 2.59765625 C-7.24011719 2.42105469 -6.41382813 2.24445312 -5.5625 2.0625 C-4.32693359 1.80146484 -4.32693359 1.80146484 -3.06640625 1.53515625 C-1.02338796 1.19247006 -1.02338796 1.19247006 0 0 Z " fill="#EC5E19" transform="translate(541,643)"/>
<path d="M0 0 C0.66 0.33 1.32 0.66 2 1 C1.67 2.32 1.34 3.64 1 5 C4.96 5 8.92 5 13 5 C10.65828261 7.34171739 9.76939546 7.391923 6.5625 7.75 C5.38880859 7.89695312 5.38880859 7.89695312 4.19140625 8.046875 C2 8 2 8 -1 6 C-0.67 4.02 -0.34 2.04 0 0 Z " fill="#F27A18" transform="translate(677,716)"/>
<path d="M0 0 C0.433125 0.495 0.86625 0.99 1.3125 1.5 C2.99740483 3.33218192 2.99740483 3.33218192 6 3 C5.649375 3.7425 5.29875 4.485 4.9375 5.25 C3.95489906 8.13229609 3.81845104 9.24305242 5 12 C5.66 12.33 6.32 12.66 7 13 C6.01 14.485 6.01 14.485 5 16 C4.1605118 13.89828133 3.32860344 11.79353375 2.5 9.6875 C2.0359375 8.51574219 1.571875 7.34398437 1.09375 6.13671875 C0 3 0 3 0 0 Z " fill="#E33914" transform="translate(445,567)"/>
<path d="M0 0 C1.65 0 3.3 0 5 0 C5.33 0.99 5.66 1.98 6 3 C5.34 3 4.68 3 4 3 C3.731875 3.78375 3.46375 4.5675 3.1875 5.375 C2 8 2 8 -1 10 C-0.34 8.35 0.32 6.7 1 5 C0.34 4.67 -0.32 4.34 -1 4 C-0.67 2.68 -0.34 1.36 0 0 Z " fill="#EA5824" transform="translate(481,562)"/>
<path d="M0 0 C0.33 0.66 0.66 1.32 1 2 C-0.07972738 3.4194169 -1.16395863 4.8354083 -2.25 6.25 C-3.15492188 7.43335938 -3.15492188 7.43335938 -4.078125 8.640625 C-5.93182995 10.91631157 -7.88898954 12.96371558 -10 15 C-10.66 14.67 -11.32 14.34 -12 14 C-11.57847656 13.61328125 -11.15695312 13.2265625 -10.72265625 12.828125 C-10.17480469 12.30734375 -9.62695312 11.7865625 -9.0625 11.25 C-8.51722656 10.73953125 -7.97195313 10.2290625 -7.41015625 9.703125 C-5.85069391 8.07640758 -5.85069391 8.07640758 -5.49609375 5.859375 C-5.25052734 4.93898438 -5.25052734 4.93898438 -5 4 C-4.01 3.67 -3.02 3.34 -2 3 C-1.34 2.01 -0.68 1.02 0 0 Z " fill="#EE590E" transform="translate(556,627)"/>
<path d="M0 0 C2.375 -0.125 2.375 -0.125 5 0 C5.66 0.66 6.32 1.32 7 2 C6.67 2.99 6.34 3.98 6 5 C3.03 5 0.06 5 -3 5 C-2.67 4.01 -2.34 3.02 -2 2 C-1.34 2 -0.68 2 0 2 C0 1.34 0 0.68 0 0 Z " fill="#DD4125" transform="translate(306,524)"/>
<path d="M0 0 C0.66 0 1.32 0 2 0 C2 0.66 2 1.32 2 2 C2.99 2 3.98 2 5 2 C5 2.66 5 3.32 5 4 C2 6 2 6 -2 6 C-2 5.34 -2 4.68 -2 4 C-2.66 4 -3.32 4 -4 4 C-4 3.34 -4 2.68 -4 2 C-3.01 1.67 -2.02 1.34 -1 1 C-0.67 0.67 -0.34 0.34 0 0 Z " fill="#DA3F24" transform="translate(384,717)"/>
<path d="M0 0 C2.05078125 0.03255208 4.1015625 0.06510417 6.15234375 0.09765625 C5.82234375 0.75765625 5.49234375 1.41765625 5.15234375 2.09765625 C4.16234375 2.09765625 3.17234375 2.09765625 2.15234375 2.09765625 C1.16234375 3.58265625 1.16234375 3.58265625 0.15234375 5.09765625 C-1.97265625 5.78515625 -1.97265625 5.78515625 -3.84765625 6.09765625 C-2.77957394 0.14691194 -2.77957394 0.14691194 0 0 Z " fill="#F54B20" transform="translate(672.84765625,301.90234375)"/>
<path d="M0 0 C2 3 2 3 1.828125 5.19140625 C1.63734375 5.97386719 1.4465625 6.75632812 1.25 7.5625 C1.06953125 8.34753906 0.8890625 9.13257813 0.703125 9.94140625 C0 12 0 12 -2 14 C-2.33 11.69 -2.66 9.38 -3 7 C-2.01 6.34 -1.02 5.68 0 5 C-0.33 4.01 -0.66 3.02 -1 2 C-0.67 1.34 -0.34 0.68 0 0 Z " fill="#F47E23" transform="translate(608,481)"/>
<path d="M0 0 C2 1 2 1 3.125 4.125 C3.97755199 7.90058738 4.15729024 11.14638912 4 15 C3.71125 14.360625 3.4225 13.72125 3.125 13.0625 C2.17176549 10.84793921 2.17176549 10.84793921 0 10 C0 6.7 0 3.4 0 0 Z " fill="#DB3117" transform="translate(328,549)"/>
<path d="M0 0 C2 3 2 3 1.625 5.6875 C1.41875 6.450625 1.2125 7.21375 1 8 C-0.32 8.33 -1.64 8.66 -3 9 C-2.25 2.25 -2.25 2.25 0 0 Z " fill="#ED631D" transform="translate(517,544)"/>
<path d="M0 0 C0.66 0.99 1.32 1.98 2 3 C0.79266543 5.41466913 -0.60254039 7.69115369 -2 10 C-2.99 8.68 -3.98 7.36 -5 6 C-4.34 6 -3.68 6 -3 6 C-2.67 5.01 -2.34 4.02 -2 3 C-1.34 2.01 -0.68 1.02 0 0 Z " fill="#F37C23" transform="translate(600,508)"/>
<path d="M0 0 C0.54372951 3.05847848 1 5.88772805 1 9 C-2 8 -2 8 -3.6875 4.9375 C-4.120625 3.968125 -4.55375 2.99875 -5 2 C-1.125 0 -1.125 0 0 0 Z " fill="#DB4024" transform="translate(393,713)"/>
<path d="M0 0 C0.99 0.33 1.98 0.66 3 1 C3 1.66 3 2.32 3 3 C2.34 3 1.68 3 1 3 C0.67 4.65 0.34 6.3 0 8 C-1.32 8 -2.64 8 -4 8 C-4 6.68 -4 5.36 -4 4 C-3.01 3.67 -2.02 3.34 -1 3 C-0.67 2.01 -0.34 1.02 0 0 Z " fill="#EA5D23" transform="translate(500,562)"/>
<path d="M0 0 C1.65 0 3.3 0 5 0 C5 2 5 2 3.5 3.625 C3.005 4.07875 2.51 4.5325 2 5 C2.33 5.66 2.66 6.32 3 7 C0.97954558 6.39816251 -1.02111039 5.72693904 -3 5 C-3.33 4.34 -3.66 3.68 -4 3 C-2.68 3.33 -1.36 3.66 0 4 C0 2.68 0 1.36 0 0 Z " fill="#DD3D1F" transform="translate(261,529)"/>
<path d="M0 0 C1.32 0 2.64 0 4 0 C4 0.66 4 1.32 4 2 C4.66 2.33 5.32 2.66 6 3 C4.68 2.67 3.36 2.34 2 2 C2 3.98 2 5.96 2 8 C1.34 8 0.68 8 0 8 C0 6.68 0 5.36 0 4 C-0.99 4 -1.98 4 -3 4 C-3 3.34 -3 2.68 -3 2 C-2.34 2 -1.68 2 -1 2 C-0.67 1.34 -0.34 0.68 0 0 Z " fill="#DF3B21" transform="translate(443,498)"/>
<path d="M0 0 C0.99 0.33 1.98 0.66 3 1 C3 2.65 3 4.3 3 6 C2.4225 5.773125 1.845 5.54625 1.25 5.3125 C-1.12172477 4.73494807 -1.12172477 4.73494807 -3.25 6.4375 C-4.11625 7.2109375 -4.11625 7.2109375 -5 8 C-3.62845496 5.04590299 -2.01136276 2.55991624 0 0 Z " fill="#DD3D21" transform="translate(277,473)"/>
<path d="M0 0 C0.33 0 0.66 0 1 0 C1 3.96 1 7.92 1 12 C0.01 12 -0.98 12 -2 12 C-1 3.42857143 -1 3.42857143 0 0 Z " fill="#F8701F" transform="translate(737,418)"/>
<path d="M0 0 C0 3 0 3 -1 5 C-0.34 5.66 0.32 6.32 1 7 C-5.15234375 6.4140625 -5.15234375 6.4140625 -7 6 C-7.33 5.34 -7.66 4.68 -8 4 C-7.4225 3.896875 -6.845 3.79375 -6.25 3.6875 C-3.67950842 2.90207202 -2.06342716 1.69495803 0 0 Z " fill="#D12918" transform="translate(335,715)"/>
<path d="M0 0 C0 3 0 3 -2 6 C-1.38125 6.12375 -0.7625 6.2475 -0.125 6.375 C2 7 2 7 4 9 C0.62537285 8.45276317 -1.08235 7.9451 -4 6 C-3.6875 4.125 -3.6875 4.125 -3 2 C-2.01 1.34 -1.02 0.68 0 0 Z " fill="#FEF8F4" transform="translate(298,508)"/>
<path d="M0 0 C0.66 0 1.32 0 2 0 C2 0.66 2 1.32 2 2 C2.99 2.33 3.98 2.66 5 3 C4.67 3.66 4.34 4.32 4 5 C2.35 4.67 0.7 4.34 -1 4 C-0.67 2.68 -0.34 1.36 0 0 Z M-3 6 C-3 6.99 -3 7.98 -3 9 C-3.66 8.67 -4.32 8.34 -5 8 C-4.34 7.34 -3.68 6.68 -3 6 Z " fill="#F4781F" transform="translate(608,443)"/>
<path d="M0 0 C-0.99 1.485 -0.99 1.485 -2 3 C-2.66 3 -3.32 3 -4 3 C-4 3.99 -4 4.98 -4 6 C-4.99 6 -5.98 6 -7 6 C-7 4.02 -7 2.04 -7 0 C-2.25 -1.125 -2.25 -1.125 0 0 Z " fill="#F7731D" transform="translate(722,484)"/>
<path d="M0 0 C0.33 0.66 0.66 1.32 1 2 C1.99 2.33 2.98 2.66 4 3 C4 5.97 4 8.94 4 12 C3.01 12.495 3.01 12.495 2 13 C1.34 8.71 0.68 4.42 0 0 Z " fill="#DA3218" transform="translate(281,558)"/>
<path d="M0 0 C0 0.66 0 1.32 0 2 C-0.66 2 -1.32 2 -2 2 C-2.33 3.98 -2.66 5.96 -3 8 C-6 4.375 -6 4.375 -6 1 C-4 0 -4 0 0 0 Z " fill="#DE361B" transform="translate(436,527)"/>
<path d="M0 0 C-0.33 1.98 -0.66 3.96 -1 6 C-3.475 5.01 -3.475 5.01 -6 4 C-6 3.01 -6 2.02 -6 1 C-3.92446352 0.4465236 -2.15634036 0 0 0 Z " fill="#F97B1D" transform="translate(722,497)"/>
<path d="M0 0 C0.99 0.33 1.98 0.66 3 1 C3 2.65 3 4.3 3 6 C2.01 6.33 1.02 6.66 0 7 C-0.66 6.34 -1.32 5.68 -2 5 C-1.34 3.35 -0.68 1.7 0 0 Z " fill="#F8731D" transform="translate(730,444)"/>
<path d="M0 0 C4.455 0.99 4.455 0.99 9 2 C9 2.99 9 3.98 9 5 C4.545 4.01 4.545 4.01 0 3 C0 2.01 0 1.02 0 0 Z " fill="#DA452B" transform="translate(348,677)"/>
<path d="M0 0 C0.556875 0.474375 1.11375 0.94875 1.6875 1.4375 C4.18346074 3.12395996 6.0446237 3.58953107 9 4 C8.67 4.99 8.34 5.98 8 7 C4.21388773 6.45912682 2.44599233 4.88277668 0 2 C0 1.34 0 0.68 0 0 Z " fill="#FEF9F5" transform="translate(343,668)"/>
<path d="M0 0 C0.66 0.99 1.32 1.98 2 3 C2 2.34 2 1.68 2 1 C2.66 1 3.32 1 4 1 C3.67 2.65 3.34 4.3 3 6 C1.02 4.68 -0.96 3.36 -3 2 C-2.01 1.34 -1.02 0.68 0 0 Z " fill="#F77A1E" transform="translate(712,493)"/>
<path d="M0 0 C0.66 0 1.32 0 2 0 C2 0.66 2 1.32 2 2 C2.66 2 3.32 2 4 2 C4 2.66 4 3.32 4 4 C3.01 4 2.02 4 1 4 C0.67 4.99 0.34 5.98 0 7 C-0.66 6.34 -1.32 5.68 -2 5 C-1.34 3.35 -0.68 1.7 0 0 Z " fill="#E04A2A" transform="translate(398,434)"/>
<path d="M0 0 C1.175625 0.0825 2.35125 0.165 3.5625 0.25 C4.2225 1.24 4.8825 2.23 5.5625 3.25 C-0.4921875 3.4453125 -0.4921875 3.4453125 -2.4375 3.25 C-3.0975 2.59 -3.7575 1.93 -4.4375 1.25 C-3.4375 0.25 -3.4375 0.25 0 0 Z " fill="#E05335" transform="translate(390.4375,720.75)"/>
<path d="M0 0 C0.33 0.99 0.66 1.98 1 3 C-2.67568464 3.91892116 -4.16380575 3.95904856 -8 3 C-5.36 2.01 -2.72 1.02 0 0 Z " fill="#F37114" transform="translate(669,678)"/>
<path d="M0 0 C1.32 0.66 2.64 1.32 4 2 C3.34 3.32 2.68 4.64 2 6 C1.34 6 0.68 6 0 6 C-0.38218767 4.34385343 -0.71395102 2.67542976 -1 1 C-0.67 0.67 -0.34 0.34 0 0 Z " fill="#EA5F22" transform="translate(499,637)"/>
<path d="M0 0 C1.25541557 3.76624671 0.37061958 5.37188934 -1 9 C-1.66 8.67 -2.32 8.34 -3 8 C-3 6.35 -3 4.7 -3 3 C-2.01 2.67 -1.02 2.34 0 2 C0 1.34 0 0.68 0 0 Z " fill="#F46B17" transform="translate(613,477)"/>
<path d="M0 0 C2.3422013 1.51109761 3.77132446 2.46097908 4.875 5.0625 C4.936875 6.0215625 4.936875 6.0215625 5 7 C4.34 7.66 3.68 8.32 3 9 C1 6 1 6 1 3 C0.34 3 -0.32 3 -1 3 C-0.67 2.01 -0.34 1.02 0 0 Z " fill="#FA7B23" transform="translate(739,461)"/>
<path d="M0 0 C1.32 0.33 2.64 0.66 4 1 C4 1.66 4 2.32 4 3 C3.34 3 2.68 3 2 3 C2.350625 3.598125 2.70125 4.19625 3.0625 4.8125 C4 7 4 7 3 10 C0 3.375 0 3.375 0 0 Z " fill="#D93015" transform="translate(397,440)"/>
<path d="M0 0 C1.5 1.25 1.5 1.25 3 3 C3 4.32 3 5.64 3 7 C2.01 7 1.02 7 0 7 C-1.125 2.25 -1.125 2.25 0 0 Z " fill="#EA6123" transform="translate(502,617)"/>
<path d="M0 0 C1.32 0.33 2.64 0.66 4 1 C3.67 2.32 3.34 3.64 3 5 C1.35 4.67 -0.3 4.34 -2 4 C-1.34 2.68 -0.68 1.36 0 0 Z " fill="#E5441C" transform="translate(458,408)"/>
<path d="M0 0 C1.98 0.495 1.98 0.495 4 1 C4.33 2.32 4.66 3.64 5 5 C4.67 4.34 4.34 3.68 4 3 C2.02 3.99 2.02 3.99 0 5 C-0.33 4.01 -0.66 3.02 -1 2 C-0.67 1.34 -0.34 0.68 0 0 Z " fill="#F67820" transform="translate(600,396)"/>
<path d="M0 0 C1.65 0 3.3 0 5 0 C5.66 1.98 6.32 3.96 7 6 C3.535 4.02 3.535 4.02 0 2 C0 1.34 0 0.68 0 0 Z " fill="#F37A20" transform="translate(594,496)"/>
<path d="M0 0 C1.32 0 2.64 0 4 0 C5.8125 2.375 5.8125 2.375 7 5 C6.67 5.66 6.34 6.32 6 7 C1.125 2.25 1.125 2.25 0 0 Z " fill="#F96E17" transform="translate(742,471)"/>
<path d="M0 0 C1.485 0.99 1.485 0.99 3 2 C3.99 1.67 4.98 1.34 6 1 C5.34 2.32 4.68 3.64 4 5 C2.68 4.67 1.36 4.34 0 4 C0 2.68 0 1.36 0 0 Z " fill="#F54F21" transform="translate(643,322)"/>
<path d="M0 0 C2.64 0 5.28 0 8 0 C7.01 1.485 7.01 1.485 6 3 C5.01 3 4.02 3 3 3 C2.01 3.495 2.01 3.495 1 4 C0.67 2.68 0.34 1.36 0 0 Z " fill="#F4481F" transform="translate(639,302)"/>
</svg>
